<svg width="60" height="60" viewBox="0 0 60 60" fill="#5F13EF" xmlns="http://www.w3.org/2000/svg">
<path d="M17.5116 22.6907C12.1194 21.1928 7.06761 22.9681 6.01491 26.7425C4.96271 30.5173 8.36458 34.6545 13.7577 36.1572C14.9723 36.499 16.2278 36.675 17.4897 36.6804C18.657 36.6891 19.8184 36.5131 20.9306 36.1591C22.9701 35.635 24.6011 34.1059 25.2544 32.1039C25.7303 30.0527 25.1262 27.9005 23.6518 26.3973C22.0091 24.5908 19.8749 23.3026 17.5116 22.6907ZM23.3299 31.5676C22.8429 32.9192 21.7063 33.9333 20.3084 34.2639C18.3434 34.8383 16.2537 34.8285 14.2941 34.2351C10.1233 33.0737 7.21339 29.8883 7.9394 27.2808C8.47867 25.3455 10.8971 24.1753 13.8138 24.1753C14.8826 24.1788 15.946 24.327 16.9753 24.6156C18.9588 25.1217 20.7526 26.1944 22.1368 27.7025C23.1622 28.7064 23.6113 30.1604 23.3299 31.5676Z" />
<path d="M42.4844 22.6907C37.0922 24.1885 33.6889 28.3286 34.7416 32.1039C35.5402 34.9729 38.6481 36.6897 42.4605 36.6897C43.7375 36.6833 45.0081 36.5044 46.2373 36.1572C51.6295 34.6594 55.0314 30.5193 53.9801 26.7425C52.9284 22.9662 47.8766 21.1875 42.4844 22.6907ZM45.701 34.2371C41.5287 35.3971 37.3916 34.1781 36.6646 31.572C35.9376 28.9654 38.8495 25.78 43.0207 24.6176C47.1915 23.4552 51.3296 24.6776 52.0556 27.2827C52.7817 29.8884 49.8718 33.0718 45.701 34.2371Z" />
<path d="M57.0038 18.0601H47.9167C40.1281 18.0601 35.812 20.99 33.9128 22.7653C33.0084 22.3518 32.0342 22.1104 31.041 22.0544H29.0438C28.0497 22.1031 27.074 22.343 26.17 22.7604C24.4157 21.1358 20.0406 18.0601 12.0833 18.0601H2.99621C1.34428 18.0669 0.00683978 19.4039 0.000501203 21.0558C-0.0355799 28.1296 1.88062 32.7163 4.38923 35.696C2.64369 37.0329 0.765518 38.8243 0.136537 40.7117C0.0351196 41.016 0.0858282 41.3509 0.273547 41.6113C0.461754 41.8717 0.76308 42.0257 1.08391 42.0257H7.07532C7.34008 42.0257 7.59411 41.9204 7.78134 41.7332L9.76532 39.7492C11.0886 40.3475 12.4836 40.7722 13.9156 41.013C15.0322 41.2027 16.1624 41.2997 17.2946 41.3027C21.3888 41.3027 24.8438 39.9428 27.0477 37.3893C29.017 35.0899 29.8211 32.0132 29.2296 29.0444H30.7665C30.1745 32.0137 30.9791 35.0904 32.9484 37.3903C35.7354 40.6186 40.5215 41.9399 46.0795 41.013C47.534 40.7683 48.9499 40.3338 50.2912 39.7209L52.3035 41.7332C52.4907 41.9204 52.7447 42.0257 53.0095 42.0257H59.0009C59.3218 42.0257 59.6236 41.8717 59.8113 41.6113C59.999 41.3509 60.0502 41.016 59.9488 40.7117C59.3135 38.8072 57.4095 36.9968 55.6459 35.6501C58.1364 32.669 60.0346 28.0906 59.9995 21.0558C59.9932 19.4039 58.6557 18.0669 57.0038 18.0601ZM6.66185 40.0286H2.75778C3.63007 38.9335 4.64863 37.9632 5.78518 37.1446C6.44927 37.7472 7.1665 38.2889 7.92713 38.7633L6.66185 40.0286ZM57.3275 40.0286H53.423L52.125 38.7307C52.8808 38.2548 53.5922 37.7121 54.2519 37.1099C55.4074 37.9354 56.4426 38.9179 57.3275 40.0286ZM45.7509 39.0442C40.8219 39.8619 36.8149 38.8136 34.4589 36.085C32.6476 33.9431 32.0937 31.0074 33.0001 28.3525C33.0981 28.0482 33.0449 27.7162 32.8572 27.4578C32.669 27.1998 32.3687 27.0472 32.0498 27.0472H27.9453C27.6264 27.0477 27.3266 27.2003 27.1389 27.4582C26.9511 27.7162 26.898 28.0487 26.996 28.3525C27.9019 31.0074 27.3475 33.9436 25.5357 36.085C23.1802 38.8136 19.1698 39.8638 14.2443 39.0442C3.1142 37.1889 1.96985 25.8487 1.99374 21.0607C1.99764 20.5107 2.44231 20.066 2.99231 20.0621H12.0794C20.4161 20.0621 24.3109 23.6341 25.3051 24.7288C25.4952 24.9496 25.7761 25.072 26.0672 25.0613C26.3558 25.0549 26.6274 24.9223 26.8093 24.6976C27.4933 24.3104 28.2588 24.089 29.0438 24.0515H31.041C31.8245 24.1051 32.5871 24.3265 33.278 24.7005C33.4633 24.9189 33.7339 25.0471 34.0206 25.052C34.3073 25.0574 34.5823 24.9389 34.7759 24.7278C36.0641 23.3235 39.9282 20.0572 47.9167 20.0572H57.0038C57.5533 20.0616 57.998 20.5063 58.0024 21.0558C58.0253 25.8487 56.8799 37.1889 45.7509 39.0442Z" />
<path d="M48.9295 26.6177C47.4414 25.4577 45.0469 26.0116 44.7782 26.0784C44.2433 26.212 43.9171 26.7537 44.0503 27.2891C44.1838 27.8239 44.7256 28.1501 45.2609 28.017C46.0693 27.7849 46.9343 27.8473 47.7013 28.1935C47.9426 28.4061 48.0611 28.726 48.0167 29.0444C48.0167 29.5958 48.4638 30.0429 49.0153 30.0429C49.5668 30.0429 50.0139 29.5958 50.0139 29.0444C50.0621 28.1087 49.6589 27.2062 48.9295 26.6177Z" />
<path d="M16.3052 26.0784C16.0366 26.0116 13.643 25.4567 12.1539 26.6176C11.4245 27.2061 11.0213 28.1087 11.0696 29.0443C11.0696 29.5958 11.5167 30.0429 12.0681 30.0429C12.6196 30.0429 13.0667 29.5958 13.0667 29.0443C13.0223 28.7259 13.1408 28.4061 13.3822 28.1935C14.1491 27.8473 15.0141 27.7849 15.823 28.017C16.3579 28.1501 16.9001 27.8239 17.0332 27.289C17.1663 26.7537 16.8401 26.212 16.3052 26.0784Z" />
</svg>
