<svg width="19" height="21" viewBox="0 0 19 21" fill="none" xmlns="http://www.w3.org/2000/svg">
<path fill-rule="evenodd" clip-rule="evenodd" d="M13.9531 18.1563V11.2007L14.9427 10.1582V18.1563C14.9427 18.4639 14.8473 18.7231 14.6566 18.9338C14.4659 19.1446 14.2314 19.25 13.9531 19.25H2.5729C2.30488 19.25 2.07295 19.1446 1.8771 18.9338C1.68124 18.7231 1.58331 18.4639 1.58331 18.1563V4.48438C1.58331 4.18815 1.68124 3.9318 1.8771 3.71533C2.07295 3.49886 2.30488 3.39063 2.5729 3.39063H10.505L10.5359 3.4248L9.5309 4.48438H2.5729V18.1563H13.9531ZM16.659 2.45068C16.9167 2.72412 17.11 3.00325 17.2388 3.28809C17.3677 3.57292 17.4373 3.86914 17.4476 4.17676C17.4476 4.47298 17.3857 4.7692 17.262 5.06543C17.1383 5.36166 16.9476 5.65788 16.6899 5.9541C16.5765 6.09082 16.1694 6.54085 15.4684 7.3042C14.7674 8.06755 14.015 8.88501 13.2109 9.75659C12.4069 10.6282 11.6673 11.4342 10.9921 12.1748C10.3169 12.9154 9.94323 13.3255 9.87107 13.4053C9.84015 13.4281 9.8118 13.4508 9.78603 13.4736C9.76026 13.4964 9.73191 13.5135 9.70099 13.5249C9.57729 13.5591 9.32474 13.6445 8.94334 13.7812C8.56194 13.918 8.16508 14.0575 7.75275 14.2C7.34042 14.3424 6.97448 14.4734 6.65493 14.593C6.33537 14.7126 6.17044 14.7725 6.16014 14.7725C6.13952 14.7725 6.1189 14.7753 6.09829 14.781C6.07767 14.7867 6.05705 14.7896 6.03644 14.7896C5.9849 14.7896 5.93336 14.7782 5.88182 14.7554C5.83027 14.7326 5.78389 14.6984 5.74266 14.6528C5.69111 14.5959 5.65504 14.5247 5.63442 14.4392C5.6138 14.3538 5.6138 14.2712 5.63442 14.1914C5.63442 14.18 5.68338 14.0006 5.78131 13.6531C5.87924 13.3056 5.99005 12.9068 6.11375 12.4568C6.23745 12.0068 6.35599 11.5653 6.46938 11.1323C6.58277 10.6994 6.66524 10.3918 6.71678 10.2095C6.72708 10.1753 6.73997 10.1411 6.75543 10.1069C6.77089 10.0728 6.79409 10.0386 6.82501 10.0044L7.85325 8.86792C8.53875 8.11027 9.29897 7.27287 10.1339 6.35571C10.9689 5.43855 11.742 4.58407 12.4533 3.79224C13.1645 3.0004 13.5511 2.57601 13.6129 2.51904C13.6954 2.4279 13.8784 2.27694 14.1618 2.06616C14.4453 1.85539 14.7881 1.75 15.1901 1.75C15.4581 1.75 15.7158 1.80981 15.9632 1.92944C16.2106 2.04907 16.4425 2.22282 16.659 2.45068ZM15.9787 5.18506C16.1436 5.00277 16.2647 4.82902 16.342 4.66382C16.4193 4.49862 16.458 4.34196 16.458 4.19385C16.4477 4.04573 16.4039 3.89193 16.3266 3.73242C16.2492 3.57292 16.1333 3.41341 15.9787 3.25391C15.8447 3.11719 15.7132 3.01465 15.5844 2.94629C15.4555 2.87793 15.3241 2.84375 15.1901 2.84375C14.9633 2.84375 14.7649 2.91211 14.5948 3.04883C14.4247 3.18555 14.3294 3.2653 14.3087 3.28809L11.2086 6.7146C10.4406 7.5634 9.70357 8.37516 8.99746 9.1499C8.29134 9.92465 7.83521 10.4259 7.62905 10.6538C7.55689 10.9386 7.45123 11.3402 7.31207 11.8586C7.17291 12.377 7.03633 12.8755 6.90232 13.354C7.31465 13.2059 7.75532 13.0492 8.22434 12.884C8.69337 12.7188 9.04127 12.5964 9.26805 12.5166L9.57729 12.1919C10.5669 11.1095 11.4456 10.1497 12.2136 9.31226C12.9816 8.47485 13.6335 7.76278 14.1696 7.17603C14.7056 6.58927 15.1257 6.1307 15.4297 5.80029C15.7338 5.46989 15.9168 5.26481 15.9787 5.18506Z" fill="black"/>
</svg>
