<svg width="60" height="60" viewBox="0 0 60 60" fill="#5F13EF" xmlns="http://www.w3.org/2000/svg">
<path fill-rule="evenodd" clip-rule="evenodd" d="M56.9725 18.8434C54.7981 16.3599 51.6739 14.1091 48.6146 12.8227C45.6172 11.5625 43.0377 11.3784 41.1631 12.2576C37.6342 8.39004 35.5738 6.38934 33.4846 5.24676C31.3752 4.09319 29.3945 3.88906 26.4419 3.85511C25.6953 1.61347 23.6527 0 21.2549 0C18.8421 0 16.7894 1.63403 16.0543 3.89718H14.2264C13.256 3.89718 12.4686 4.71946 12.4686 5.73295C12.4686 6.74693 13.256 7.56872 14.2264 7.56872H15.998V13.5646H15.5324C13.917 13.5646 12.6027 14.9371 12.6027 16.6242V21.9307C9.1054 23.5691 6.10384 26.142 3.87452 29.4354C2.58683 31.3367 1.60859 33.4076 0.956728 35.5848C0.954464 35.591 0.95183 35.5971 0.949199 35.6033C0.945981 35.6108 0.942768 35.6182 0.940249 35.6259C0.913699 35.7019 0.894015 35.7784 0.877535 35.8549C0.297547 37.8823 0 39.9992 0 42.1562C0 49.0069 2.96128 55.3671 8.12395 59.607C8.43386 59.8618 8.81609 60 9.21023 60H33.2992C33.6929 60 34.076 59.8618 34.3855 59.607C39.5481 55.3671 42.5094 49.0064 42.5094 42.1562C42.5094 37.5549 41.1759 33.149 38.6537 29.4144C36.4266 26.1181 33.42 23.5471 29.9067 21.9207V16.6242C29.9067 14.9371 28.5925 13.5646 26.977 13.5646H26.5115V7.52474C31.5189 7.57446 32.5846 8.15196 38.6848 14.8626C37.8901 16.706 37.9084 19.2354 38.7704 22.2176C39.7239 25.5143 41.5907 28.965 43.7651 31.4485C45.9774 33.9756 48.3336 35.2439 50.7016 35.2439C52.7354 35.2439 54.7784 34.3083 56.7454 32.431C58.6942 30.5713 59.7786 28.5481 59.9695 26.4174C60.1933 23.9185 59.1849 21.3705 56.9725 18.8434ZM21.2543 3.67104C22.3438 3.67104 23.2301 4.59609 23.2301 5.73293C23.2301 6.86977 22.3438 7.79482 21.2543 7.79482C20.1653 7.79482 19.2795 6.86977 19.2795 5.73293C19.2795 4.59609 20.1653 3.67104 21.2543 3.67104ZM26.3908 21.3159V17.2357H16.1177V21.3159H26.3908ZM32.6748 56.3284H9.83461C5.81086 52.7955 3.51562 47.6654 3.51562 42.1562C3.51562 40.9443 3.62915 39.7477 3.85071 38.5788C6.16334 39.1956 8.65632 39.426 11.2441 39.426C14.9868 39.426 18.9263 38.9484 22.7948 38.4789C28.2281 37.8202 33.8325 37.1408 38.5163 37.8661C38.8317 39.2577 38.9938 40.6948 38.9938 42.1562C38.9938 47.6654 36.6985 52.7955 32.6748 56.3284ZM37.1916 34.0129C36.7869 33.1533 36.3163 32.3239 35.7807 31.5308C33.7835 28.5739 31.0323 26.3184 27.8133 24.9875H14.7006C11.4945 26.3323 8.74787 28.5959 6.74515 31.5547C5.99579 32.6609 5.3746 33.8374 4.88159 35.0632C9.89 36.3463 16.2332 35.5785 22.3893 34.8318C27.3858 34.2261 32.521 33.6036 37.1916 34.0129ZM19.5134 13.5641V11.169C20.0609 11.3607 20.6459 11.4659 21.2543 11.4659C21.8631 11.4659 22.4482 11.3607 22.9956 11.169V13.5641H19.5134ZM54.3744 29.7203C55.6579 28.4955 56.3629 27.2693 56.4695 26.0755C56.5968 24.6509 55.8932 23.0513 54.378 21.3207C52.5689 19.2545 49.8576 17.3031 47.3014 16.2284C45.9588 15.6638 44.7471 15.3765 43.8091 15.3765C43.1646 15.3765 42.6519 15.5137 42.3127 15.789C42.2578 15.8626 42.1987 15.9344 42.1314 16.0003C42.11 16.0216 42.0876 16.0409 42.0652 16.0601C42.0604 16.0642 42.0556 16.0684 42.0509 16.0725C41.4452 16.9536 41.47 18.8505 42.1365 21.1558C42.9325 23.9104 44.5512 26.9045 46.3598 28.9707C49.1673 32.1776 51.5646 32.4018 54.3744 29.7203Z" />
</svg>
