<svg width="62" height="62" viewBox="0 0 62 62" fill="#5F13EF" xmlns="http://www.w3.org/2000/svg">
<path fill-rule="evenodd" clip-rule="evenodd" d="M37.2513 1H43.5006L61 13L56.0013 29.4999L48.5013 26.4996V61H13.5006V26.4996L6.00063 29.4999L1 13L18.5003 1H24.7506C24.7506 5.13621 27.554 8.50014 31 8.50014C34.446 8.50014 37.2513 5.13621 37.2513 1ZM49.2905 23.6541L54.4815 25.7305L57.9312 14.3502L42.836 4.00027H39.3863C38.3115 8.33757 34.9643 11.5004 31.0001 11.5004C27.0368 11.5004 23.6888 8.33757 22.613 4.00027H19.1642L4.06982 14.3502L7.51865 25.7307L12.7097 23.6543L16.0001 22.3371V26.4997V57.9987H46.0001V26.4997V22.3371L49.2905 23.6541Z" />
<path d="M43.5006 1L43.7834 0.58764C43.7001 0.530553 43.6016 0.5 43.5006 0.5V1ZM37.2513 1V0.5C36.9751 0.5 36.7513 0.723858 36.7513 1H37.2513ZM61 13L61.4785 13.145C61.5417 12.9364 61.4625 12.7109 61.2828 12.5876L61 13ZM56.0013 29.4999L55.8155 29.9641C55.9456 30.0161 56.0916 30.0112 56.2179 29.9505C56.3441 29.8898 56.4392 29.7789 56.4798 29.6448L56.0013 29.4999ZM48.5013 26.4996L48.687 26.0353C48.5329 25.9737 48.3583 25.9925 48.2209 26.0855C48.0836 26.1786 48.0013 26.3337 48.0013 26.4996H48.5013ZM48.5013 61V61.5C48.7774 61.5 49.0013 61.2761 49.0013 61H48.5013ZM13.5006 61H13.0006C13.0006 61.2761 13.2245 61.5 13.5006 61.5V61ZM13.5006 26.4996H14.0006C14.0006 26.3337 13.9183 26.1786 13.7809 26.0855C13.6435 25.9925 13.469 25.9737 13.3149 26.0353L13.5006 26.4996ZM6.00063 29.4999L5.52212 29.6449C5.56275 29.779 5.65777 29.8898 5.78405 29.9505C5.91032 30.0112 6.05626 30.0161 6.18634 29.9641L6.00063 29.4999ZM1 13L0.717239 12.5876C0.537471 12.7109 0.458272 12.9364 0.521493 13.145L1 13ZM18.5003 1V0.5C18.3994 0.5 18.3008 0.53055 18.2176 0.587633L18.5003 1ZM24.7506 1H25.2506C25.2506 0.723858 25.0268 0.5 24.7506 0.5V1ZM54.4815 25.7305L54.2958 26.1948C54.4259 26.2468 54.5719 26.2419 54.6981 26.1812C54.8244 26.1205 54.9194 26.0096 54.96 25.8756L54.4815 25.7305ZM49.2905 23.6541L49.1047 24.1183L49.1048 24.1183L49.2905 23.6541ZM57.9312 14.3502L58.4097 14.4953C58.4729 14.2867 58.3937 14.0611 58.2139 13.9379L57.9312 14.3502ZM42.836 4.00027L43.1188 3.58789C43.0355 3.53082 42.937 3.50027 42.836 3.50027V4.00027ZM39.3863 4.00027V3.50027C39.1564 3.50027 38.9562 3.65694 38.9009 3.88002L39.3863 4.00027ZM22.613 4.00027L23.0983 3.8799C23.043 3.65688 22.8428 3.50027 22.613 3.50027V4.00027ZM19.1642 4.00027V3.50027C19.0632 3.50027 18.9647 3.53082 18.8814 3.5879L19.1642 4.00027ZM4.06982 14.3502L3.78707 13.9379C3.6073 14.0611 3.5281 14.2866 3.59131 14.4952L4.06982 14.3502ZM7.51865 25.7307L7.04014 25.8757C7.08077 26.0097 7.17579 26.1206 7.30206 26.1813C7.42833 26.242 7.57427 26.2469 7.70435 26.1949L7.51865 25.7307ZM12.7097 23.6543L12.8954 24.1185L12.8955 24.1184L12.7097 23.6543ZM16.0001 22.3371H16.5001C16.5001 22.1711 16.4178 22.016 16.2804 21.923C16.1429 21.83 15.9683 21.8112 15.8143 21.8729L16.0001 22.3371ZM16.0001 57.9987H15.5001C15.5001 58.2749 15.724 58.4987 16.0001 58.4987V57.9987ZM46.0001 57.9987V58.4987C46.2762 58.4987 46.5001 58.2749 46.5001 57.9987H46.0001ZM46.0001 22.3371L46.1859 21.8729C46.0319 21.8112 45.8572 21.83 45.7198 21.923C45.5824 22.016 45.5001 22.1711 45.5001 22.3371H46.0001ZM43.5006 0.5H37.2513V1.5H43.5006V0.5ZM61.2828 12.5876L43.7834 0.58764L43.2179 1.41236L60.7172 13.4124L61.2828 12.5876ZM56.4798 29.6448L61.4785 13.145L60.5215 12.855L55.5227 29.3549L56.4798 29.6448ZM48.3155 26.9638L55.8155 29.9641L56.187 29.0356L48.687 26.0353L48.3155 26.9638ZM49.0013 61V26.4996H48.0013V61H49.0013ZM13.5006 61.5H48.5013V60.5H13.5006V61.5ZM13.0006 26.4996V61H14.0006V26.4996H13.0006ZM6.18634 29.9641L13.6863 26.9638L13.3149 26.0353L5.81491 29.0356L6.18634 29.9641ZM0.521493 13.145L5.52212 29.6449L6.47913 29.3548L1.47851 12.855L0.521493 13.145ZM18.2176 0.587633L0.717239 12.5876L1.28276 13.4124L18.7831 1.41237L18.2176 0.587633ZM24.7506 0.5H18.5003V1.5H24.7506V0.5ZM31 8.00014C27.9116 8.00014 25.2506 4.94934 25.2506 1H24.2506C24.2506 5.32309 27.1963 9.00014 31 9.00014V8.00014ZM36.7513 1C36.7513 4.94913 34.0885 8.00014 31 8.00014V9.00014C34.8035 9.00014 37.7513 5.3233 37.7513 1H36.7513ZM54.6672 25.2663L49.4762 23.1899L49.1048 24.1183L54.2958 26.1948L54.6672 25.2663ZM57.4527 14.2052L54.003 25.5855L54.96 25.8756L58.4097 14.4953L57.4527 14.2052ZM42.5533 4.41265L57.6484 14.7626L58.2139 13.9379L43.1188 3.58789L42.5533 4.41265ZM39.3863 4.50027H42.836V3.50027H39.3863V4.50027ZM31.0001 12.0004C35.2535 12.0004 38.7573 8.61756 39.8716 4.12053L38.9009 3.88002C37.8658 8.05758 34.6751 11.0004 31.0001 11.0004V12.0004ZM22.1277 4.12064C23.2431 8.61759 26.7476 12.0004 31.0001 12.0004V11.0004C27.326 11.0004 24.1345 8.05755 23.0983 3.8799L22.1277 4.12064ZM19.1642 4.50027H22.613V3.50027H19.1642V4.50027ZM4.35258 14.7626L19.4469 4.41264L18.8814 3.5879L3.78707 13.9379L4.35258 14.7626ZM7.99716 25.5856L4.54833 14.2052L3.59131 14.4952L7.04014 25.8757L7.99716 25.5856ZM12.524 23.19L7.33296 25.2664L7.70435 26.1949L12.8954 24.1185L12.524 23.19ZM15.8143 21.8729L12.5239 23.1901L12.8955 24.1184L16.1859 22.8012L15.8143 21.8729ZM16.5001 26.4997V22.3371H15.5001V26.4997H16.5001ZM16.5001 57.9987V26.4997H15.5001V57.9987H16.5001ZM46.0001 57.4987H16.0001V58.4987H46.0001V57.4987ZM45.5001 26.4997V57.9987H46.5001V26.4997H45.5001ZM45.5001 22.3371V26.4997H46.5001V22.3371H45.5001ZM49.4763 23.1899L46.1859 21.8729L45.8143 22.8013L49.1047 24.1183L49.4763 23.1899Z" />
</svg>
