<svg width="60" height="60" viewBox="0 0 60 60" fill="none" xmlns="http://www.w3.org/2000/svg">
<g clip-path="url(#clip0)">
<path d="M38.3445 27.255C35.99 25.9538 33.4869 24.9625 31.0085 23.9339C29.571 23.3391 28.1955 22.6452 26.9811 21.6786C24.5894 19.7702 25.0479 16.6722 27.8485 15.4454C28.6416 15.0985 29.4719 14.9869 30.3145 14.9374C33.5612 14.7639 36.6468 15.3587 39.5837 16.7714C41.046 17.4777 41.5293 17.2547 42.0249 15.7304C42.5454 14.1195 42.9791 12.4837 43.4624 10.8604C43.7846 9.7699 43.3881 9.05117 42.3595 8.59266C40.4759 7.7624 38.5428 7.16759 36.5105 6.84539C33.8586 6.43646 33.8586 6.42407 33.8462 3.75979C33.8338 0.00501934 33.8338 0.00501927 30.0667 0.00501927C29.5214 0.00501927 28.9762 -0.00737272 28.4309 0.00501927C26.6713 0.0545872 26.3739 0.364387 26.3243 2.13644C26.2995 2.92953 26.3243 3.72261 26.3119 4.52809C26.2995 6.88257 26.2871 6.84539 24.0318 7.66327C18.5793 9.64598 15.2087 13.3636 14.8493 19.3117C14.5271 24.5783 17.2782 28.1348 21.603 30.7247C24.2672 32.3233 27.2165 33.2651 30.0419 34.5167C31.1448 35 32.1981 35.5576 33.1151 36.3259C35.829 38.5689 35.3333 42.2989 32.1114 43.7115C30.3889 44.4675 28.5672 44.6533 26.6961 44.4179C23.8087 44.0585 21.0453 43.3026 18.443 41.9519C16.9188 41.1588 16.4727 41.3695 15.9522 43.0176C15.5061 44.4427 15.1096 45.8801 14.713 47.3176C14.1802 49.2508 14.3784 49.7093 16.2248 50.6139C18.5793 51.7539 21.0949 52.3364 23.66 52.7453C25.6675 53.0675 25.7295 53.1542 25.7543 55.2361C25.7667 56.1779 25.7667 57.1321 25.7791 58.0739C25.7914 59.2635 26.3615 59.9574 27.5883 59.9822C28.9762 60.007 30.3765 60.007 31.7644 59.9698C32.9044 59.945 33.4869 59.3254 33.4869 58.173C33.4869 56.8842 33.5488 55.5831 33.4993 54.2943C33.4373 52.9808 34.0073 52.3116 35.2713 51.9646C38.1834 51.1715 40.6618 49.6101 42.5702 47.2804C47.874 40.8366 45.8541 31.4063 38.3445 27.255Z" fill="white"/>
</g>
<defs>
<clipPath id="clip0">
<rect width="60" height="60" fill="white"/>
</clipPath>
</defs>
</svg>
