<svg width="60" height="60" viewBox="0 0 60 60" fill="none" xmlns="http://www.w3.org/2000/svg">
<mask id="mask0" mask-type="alpha" maskUnits="userSpaceOnUse" x="0" y="0" width="60" height="60">
<path fill-rule="evenodd" clip-rule="evenodd" d="M0 0.0548096H59.9452V59.9918H0V0.0548096Z" fill="white"/>
</mask>
<g mask="url(#mask0)">
<path fill-rule="evenodd" clip-rule="evenodd" d="M34.1917 39.6712H32.9314V26.2466C32.9314 25.4794 32.3287 24.8219 31.5068 24.8219H25.7533C24.9862 24.8219 24.3287 25.4246 24.3287 26.2466V29.2055C24.3287 29.9726 24.9314 30.6301 25.7533 30.6301H26.904V39.726H25.7533C24.9862 39.726 24.3287 40.3287 24.3287 41.1507V44.1096C24.3287 44.8767 24.9314 45.5342 25.7533 45.5342H34.1917C34.9588 45.5342 35.6164 44.9315 35.6164 44.1096V41.1507C35.6164 40.3287 34.9588 39.6712 34.1917 39.6712" fill="white"/>
<path fill-rule="evenodd" clip-rule="evenodd" d="M29.9726 56.0548C15.6164 56.0548 3.94516 44.3836 3.94516 30.0274C3.94516 15.6712 15.6164 4.00002 29.9726 4.00002C44.3287 4.00002 56 15.6712 56 30.0274C56 44.3836 44.3287 56.0548 29.9726 56.0548ZM29.9726 0.0548096C13.4247 0.0548096 0 13.4795 0 30.0274C0 46.5754 13.4247 60 29.9726 60C46.5206 60 59.9452 46.5754 59.9452 30.0274C59.9452 13.4795 46.5206 0.0548096 29.9726 0.0548096V0.0548096Z" fill="white"/>
<path fill-rule="evenodd" clip-rule="evenodd" d="M26.5754 19.6164V19.6164C26.685 19.8356 26.7945 20.0548 26.9041 20.2191C27.0137 20.3835 27.1781 20.5479 27.2877 20.7123C27.4521 20.8767 27.6165 21.0411 27.8356 21.2054C28 21.315 28.2192 21.4794 28.4932 21.5342C28.7124 21.6438 28.9315 21.6986 29.2055 21.7534C29.4795 21.8082 29.6987 21.8082 29.9178 21.8082C30.137 21.8082 30.411 21.8082 30.6302 21.7534C30.8493 21.6986 31.0685 21.6438 31.2329 21.5342H31.2877C31.5069 21.4246 31.7261 21.315 31.9452 21.1506C32.1096 21.0411 32.274 20.8767 32.4384 20.7123L32.4932 20.6575C32.6576 20.4931 32.7672 20.3287 32.8767 20.1643C32.9863 20 33.0959 19.8356 33.1507 19.6164C33.1507 19.5616 33.1507 19.5616 33.2055 19.5068C33.3151 19.2876 33.3699 19.0137 33.4247 18.7945C33.4795 18.5753 33.4795 18.3013 33.4795 18.0822C33.4795 17.863 33.4795 17.589 33.4247 17.3698C33.3699 17.1506 33.3151 16.9315 33.2055 16.6575C33.0411 16.2739 32.8219 15.9452 32.548 15.6712C32.4932 15.6164 32.4932 15.6164 32.4384 15.5616C32.274 15.3972 32.1096 15.2876 31.8904 15.1232C31.6713 15.0137 31.5069 14.9041 31.2877 14.7945C31.0685 14.6849 30.8493 14.6301 30.6302 14.5753C30.3562 14.5205 30.137 14.5205 29.9178 14.5205C29.6987 14.5205 29.4247 14.5205 29.2055 14.5753C28.9863 14.6301 28.7671 14.6849 28.548 14.7945H28.4932C28.274 14.9041 28.0548 15.0137 27.8904 15.1232C27.6713 15.2876 27.5069 15.3972 27.3425 15.5616C27.1781 15.726 27.0137 15.8904 26.9041 16.0548C26.7945 16.2191 26.685 16.4383 26.5754 16.6575C26.4658 16.8767 26.411 17.0959 26.3562 17.315C26.3014 17.589 26.3014 17.8082 26.3014 18.0274C26.3014 18.2465 26.3014 18.5205 26.3562 18.7397C26.411 19.178 26.5206 19.3972 26.5754 19.6164" fill="white"/>
</g>
</svg>
