<svg width="24" height="24" viewBox="0 0 24 24" fill="none" xmlns="http://www.w3.org/2000/svg">
<path d="M12 20.5353C11.8958 20.4192 11.7824 20.291 11.6611 20.1514C11.0226 19.4167 10.1722 18.3737 9.32365 17.1412C7.597 14.6335 6 11.5141 6 8.66667C6 5.58247 8.63975 3 12 3C15.3602 3 18 5.58247 18 8.66667C18 11.5141 16.403 14.6335 14.6764 17.1412C13.8278 18.3737 12.9774 19.4167 12.3389 20.1514C12.2176 20.291 12.1042 20.4192 12 20.5353Z" stroke="#383B41" stroke-width="2"/>
<path fill-rule="evenodd" clip-rule="evenodd" d="M12 10C12.5523 10 13 9.55228 13 9C13 8.44772 12.5523 8 12 8C11.4477 8 11 8.44772 11 9C11 9.55228 11.4477 10 12 10Z" stroke="#383B41" stroke-width="2"/>
</svg>
