<svg id="Capa_1" data-name="Capa 1" xmlns="http://www.w3.org/2000/svg" viewBox="0 0 1345.97 1403.69"><defs><style>.cls-1{fill:#2b56a3;}.cls-2{fill:#6fc7da;}.cls-3{fill:#d0eaee;}.cls-4{fill:none;}.cls-5{fill:#010101;}.cls-6{fill:#fff;}</style></defs><title>logo_letras</title><polygon class="cls-1" points="224.76 865.34 218.53 895.16 276.18 869.45 224.76 865.34"/><path class="cls-1" d="M242.29,811.15c-2.09-38.19,36.29-75.09,68.19-71.53,41.6,4.64,72.69,30.47,72.11,79-.45,36.65-35.13,63.57-68.48,63.1C268.75,881.12,242.5,852.83,242.29,811.15Zm20.3,2.45c1.19,11,.71,23.23,12.84,33.89,29.92,26.32,73.59,8.43,84.16-24.46,8-24.83-7.77-54.32-26.5-61.15C304.26,752.18,263.32,758.69,262.59,813.6Z" transform="translate(-56.91 -21.64)"/><path class="cls-1" d="M233.81,841.39c-6.66-2.39-14.28-3.85-19.66-7.51-3.41-2.33-5.77-8.43-4.65-12,6.91-22.05,11.94-44.75,19.78-66.61a83.07,83.07,0,0,1,5.9-12.37c7-12.33,14.53-12.92,30.55-10.09,4.41.78,8.77,1.83,14.67,3.06-19.57,13.43-28.44,29-38.19,46.82-10.21,18.66-9.58,39.51-2.38,58.7C238.9,842,234.72,840.8,233.81,841.39Z" transform="translate(-56.91 -21.64)"/><path class="cls-1" d="M395.34,783.36c7,3.62,14.19,6.81,20.72,11.1,2,1.34,3.48,6,2.86,8.53-2.55,10.37-3.83,24.92-9.14,33.87-4.83,8.13-25.12,21.36-33.74,27.22,11.87-22.12,14.85-62.15,6.55-85.75C383.49,777.82,394.42,783.87,395.34,783.36Z" transform="translate(-56.91 -21.64)"/><path class="cls-2" d="M404.25,725.55c-6-4.27,10.19-5.54,18.4-14,5.17-4.14,7.85-8.43,10.36-14.8,7.13,1.51,20.27,5.54,27.23,7.41C454,722.93,421.47,734.92,404.25,725.55Z" transform="translate(-56.91 -21.64)"/><path class="cls-3" d="M433.31,694.51c-6.24,17.88-17.08,17.79-23.53,21.39-3.59,2-9.3,3.66-9,6.83.3,3.47,4.15,8.59,7.92,9.56,16.36,4.24,39,3.19,51-15.56,5-7.72,8.62-14.62,16.52-11.74,7.65,2.79,19,7.19,26.86,9.35,2.93.8,17.17,6.65,20.92,8.08-23.48,43.27-52.8,74.6-88.58,105.34-19.21,16-23.24,15-21.82,1.83.55-3.14,1-6.28,1.67-9.41,1.17-5.68,2.77-11.29,3.56-17,1-7.2,1.37-8.51-5.11-11.44-2.41-1.1-4.84-2.13-7.31-3.07-15.3-5.89-28.38-13.6-39.57-27-15.45-16-44.22-26.79-74-20.14-4.89,1.1-14.11-2-19.11-2.95-7.78-1.4-13.11-5.16-20.9-6.55-11.95-2.13-14.29-.58-19.9,10-13.14,24.77-17.53,47-22.72,74.33-2.84,14.91-5.46,16.31,8.78,22.11,6.12,2.49,12.12,3.5,18.07,6.32,2.94,1.4,7.29,7,9.71,9.34,9.54,9,16.57,15.09,26.45,23.71,3.74,3.26,8.84,11.36,8.78,16-.25,18.07-20.21,25.88-32,28.4-30.15,6.4-43,9.32-78.27,13.73-2.52.44-30,2.42-34.3,2.42,0-14.43.17-38.32,0-54.84-1.08-92.28-.78-178-1.39-270.33-.42-63.46.64-126.95.59-190.4,0-53.68-1.44-107.38-.95-161,.37-39.82-3.46-78.62,10.37-116.16,20.18-54.77,77.42-96.68,135-105.69,24.92-3.9,52.8-4.55,78.1-4.55,183.8,0,367.7-.82,551.49.1,70.84.35,141.74-5.72,212.51-2.58,51.23,2.28,107.33,23.48,139.68,65.5,17.05,22.15,30.43,54.41,37.91,81.41,7,25.26,9.19,58.26,10.74,85.55,3,50.93-3.36,100.68-4,151.66-1,75.89-1.21,150.88-1.24,226.77,0,91.49-1,172.05-.59,263.55,0,3.33-.23,13.93-.23,17.25,0,4.64.61,13.11-.21,13.64-17.35-8.47-33.65-20.18-44.22-28.62-36.52-29.13-62.54-69.14-91.12-105.59-39.09-49.82-70.48-104.59-106.93-156.11-22.73-32.13-45.75-63.74-69.84-94.84C950,497.28,901.4,448.5,844.82,406.17c-36.24-27.12-76.45-45.62-120.05-57.65-28.43-7.84-57.36-11.6-86.57-14.67-28.42-3-57.21-4.76-85.75-2.17a332.22,332.22,0,0,0-68.29,13.43c-30.87,9.38-58.8,20.45-84.61,40.4-8.87,6.84-7.62,7.66,2.27,12.81,39.4,20.46,74,41,103,75,22.89,26.92,41.56,61.61,48.15,96.39,3.19,16.83,2.34,37.06.31,54.24-2.22,18.73-8.38,39.59-13,58-2.54,10.06-5.94,10.26-15.81,7.57-30.83-8.34-62.5-15.23-93.6-22.45-13.64-1.76-23.49-5-36.88-5.17-8.73-.11-12.87,2.55-8.67,10.45,4.64,8.73,5.85,9.81,15.49,12.7,5.47,1.64,10,2.31,15.5,4C420.81,690.37,432.88,693.43,433.31,694.51Z" transform="translate(-56.91 -21.64)"/><path class="cls-2" d="M1311.83,1024.05c0,24.2-1.78,40-8.56,63.53-15.23,50.17-51.43,87.13-100.45,108.69-10.32,4.55-26,9-37.36,9.68-8.2.48-28.9,20.75-37.15,20.59-9.46-.19-7.13-55.46-16.58-55.63-6.07-.1-34.5,37.66-55.49,34.82-52.3-.4,25.36-91.16-36.15-87-14.94,1-4.85,84-32.48,84.79-20.21.6-16.32-32.44-28.88-33.32-8.69-.6-25.62,61.58-40.58,60.77-22.61-1.21-9.48-35.93-26-35.93-22.41,0-62.79,34.52-85.19,34.52-13.66,0-38.56-13.93-47.22-31.47-1.81-3.68-4-14-8.09-14-8.41,0-26.11,22.62-34.52,22.62-11.17,0-6.61-67.7-17.78-67.71-6.73,0-25.35,60.85-32.08,60.85-5,0-8.69-8.08-13.73-8.08-12.72,0-28.06,12.32-40.78,12.32-10.56,0-13.46-24.43-24-24.43-8.67,0-25,21-33.71,21-5.85,0-9.09-8.67-14.94-8.68-13.25,0-26.72,16.16-40,16.16-13.46,0-8.14-47.64-21.6-47.65-12.59,0-29.68,42.61-50.88,40-16.64-2.06-17.29-43.93-27.26-43.93-6.81,0-23.92,41.39-37.74,41.38-7.48,0-5.66-23.07-13.12-23.08-6.31,0-21.91,23.06-28.21,23.05-17.08,0-34.44-1-51.16-4.15-22.73-4.3-41.73-16.29-58.07-33.12-26.26-27-50.64-55.31-59.48-93-5.71-24.35-9-49.31-12.49-74.1-1.93-13.57-2-27.4-3.25-41.09-.52-5.82,1.2-10,7.07-10.56,30-3,60.57-4,89.76-10.58,52.39-11.84,103.2-26.64,148.11-57.89,47.4-33,103.93-75.63,135.32-125,4.24-6.68,8.06-13.62,12-20.51,2.75-4.87,6.24-6.07,11.85-4.43,33.17,9.73,57.1,16,89.24,29.39,15.72,6.54,37,11.35,53.35,16.39,25.72,7.92,60.05,18.64,85.93,25.95,40.91,11.56,66.42,15.93,107.33,27.52,34.57,9.81,74.17,18.35,109.87,19.48,12.07.39,24.15.73,36.24-.42,4.21-.4,9.36-2,8.22-7.44-.62-3-4.25-6.82-7.18-7.53-16.65-4-37.69-3.35-54.42-7-18.29-4-36.74-7.4-54.74-12.43-47.56-13.31-95-27.22-142.35-41.13q-102.66-30.1-205.24-60.58c-7.85-2.33-11-4.14-19-6.18-7.11-1.82-8.62-4.82-5.91-11.88a243.59,243.59,0,0,0,16.61-79.51c1.12-33.31-8-64.09-23.4-93.38-24.77-47.14-62.21-79-107.55-104.82-6.89-3.92-19.66-9.66-26.7-13.27-7.52-3.86-8.41-6.09-1.06-10.67a274.34,274.34,0,0,1,38.28-20.14c24.91-10.51,60.34-22,87-26.62,32.73-5.67,65.17-3.56,97.71-.4,21.26,2.06,42.83,3.41,63.54,8.2,57.3,13.29,116.6,36,162.52,73,24.17,19.51,48.67,43.07,70.7,65.1C959,524.35,991.54,567.59,1025.9,610.8c39.75,50,67.6,104.51,103.73,156.9,20.35,29.51,43.37,58.62,65.41,87,5.51,7.08,18.48,22.64,24.34,29.43,22.19,25.7,55.1,47.38,85.1,63.17,5.31,2.79,7.57,26.92,7.36,33.17" transform="translate(-56.91 -21.64)"/><path class="cls-4" d="M434.74,695.27l27.85,8.79s-5.33,16.92-17.33,22-30.6,5.57-35.49,1.45-9.81-6.11-2.62-8.51,15.72-5.71,19.46-8.25S434.74,695.27,434.74,695.27Z" transform="translate(-56.91 -21.64)"/><g id="jWJmVV"><path class="cls-5" d="M1326.72,969.48c-.41,24.27-.47,48.56-1.38,72.79-1.42,38-9.86,74-30.4,106.74-19.66,31.37-47.22,50.37-83.38,57.38-11.91,2.3-23.82,4.64-35.64,7.35-21.27,4.88-34.11,20-44.22,37.89-1.63,2.9-1.25,7.21-1.06,10.81,2.19,41.7.58,83.31-2.71,124.89-.36,4.7-1.71,9.31-2.57,14-3.4,18.5-24.5,27.23-40.76,23-11.13-2.94-17.27-11.44-19-23-2.67-17.45,0-34.53,5.94-50.64,12.26-33.32,25.87-66.13,38.87-99.19,1.24-3.17,2.9-6.46,3-9.72.35-18.47.27-36.94.29-55.41,0-.92-.14-3.89,0-6.47-4.19,5.09-8.59,11.81-12.49,15.42-9,8.33-17.33,18.63-28,23.74-21.46,10.27-40,3.12-43.74-21.06-1.12-7.2-1.76-14.94-.39-22,2.93-15.22,7.3-30.15,11.11-45.2.44-1.75,1.07-3.47,1.57-5.11l-21.15-3c0,1.83.05,4.49,0,7.15-.49,20.24,1.59,40.82-7.08,60-2.14,4.74-4.55,9.68-8,13.45-10.33,11.25-26.35,9.88-34.08-3.21-4.16-7-6.44-15.22-10.4-24.91-2,6-3.16,10.41-4.93,14.57-6.28,14.75-12.24,29.65-19.37,44-4.15,8.31-11.67,12.77-21.68,11.12-9.41-1.55-12.76-9-15.12-16.54-2.9-9.26-4.59-18.89-6.8-28.41-6.51,2.66-13.24,5.19-19.72,8.26-1.51.71-2.39,3.22-3.1,5.07-7.66,19.93-22.78,28.84-43.46,29.55-17.31.59-34.05-.82-49.83-9.49-14.84-8.16-21.3-20.45-21.93-36.66-.07-1.85,0-3.7-.13-5.54a16.25,16.25,0,0,0-1.09-2.85c-3.56,6-6.64,11.17-9.78,16.35-4.76,7.86-10.1,15.87-20.56,14.77s-14.07-10.18-15.86-18.64c-2.21-10.43-2.7-21.28-3.32-32-.5-8.66-.1-17.37-1-26.4-1.68,5.89-3.08,11.89-5.09,17.67-3.8,10.94-7.51,21.95-12.08,32.56-4.93,11.44-16.33,14.27-24.13,5.88-4.09-4.4-7-1.28-9.83,1.69-11.43,12-25.16,14.61-40.62,9.88-10.87-3.33-17.82-10-18.2-22.07a11.76,11.76,0,0,0-.64-3.07,1.63,1.63,0,0,0-.64-.75c-7.24,6.4-13.84,13.73-21.81,18.92-9.32,6.08-18.15,2.2-24.86-5.37-5.4,8.3-9.75,16.78-15.78,23.83-12.17,14.22-28.5,12.47-38.7-3.51-8.19-12.82-9.47-27.17-8.78-41.91.19-4.05,0-8.13,0-12.42-7.4,10.1-14.34,19.87-21.64,29.36a47.41,47.41,0,0,1-9.07,8.78c-11.63,8.77-28.26,6-34.63-7.11-4.83-9.91-6.93-21.15-10.48-32.51a40.46,40.46,0,0,0-4.65,4.85c-7.73,10.66-15.88,21.1-22.74,32.31a41.94,41.94,0,0,0-6.1,18.86c-2.5,46.08-4,92.22-6.66,138.28-1.07,18.29-9.78,33.64-23.42,46.16-12.27,11.26-27.21,7.88-32.3-7.78-7-21.65-6-43.7-2.76-65.8,4.78-33,16.33-63.67,31-93.45,6.05-12.24,10.23-25.44,14.85-38.35,1-2.69.13-6,.13-10.21-2.66,2-4.44,3-5.85,4.37-20.22,20.06-44.23,24.54-71.48,18.81-38.28-8-68.49-28.68-94.39-57.12-27.31-30-41.45-66-46.91-105.27-4.31-31-5.95-62.42-8.21-93.7L126.32,924c-.19-29.53-.52-59-.47-88.57.07-36.15.89-72.28.67-108.41-.83-135.13-2.28-270.26-2.77-405.39-.14-38.45.87-77,3.67-115.34,3.82-52.5,20.65-99.94,60.89-136.69,24-22,51.78-35.23,84-40.84,36-6.27,67.81-6.09,107.64-5.82,25.83.18,52.14.11,78,0q234.75-.84,469.51-1.29c62,0,124,1.57,186,2,43.57.27,84,10.89,120.49,34.87,25.92,17,45.57,39.9,60.5,66.81,18.9,34.06,25.53,71.47,30,109.7,8.09,69,4.49,131.82,4.53,200.89,0,66.77-1.29,139.81-1.33,206.58ZM244.86,70.21c-77.08,33.92-89.25,147.27-90.21,224.64-1.16,93.19.1,585.14.91,648.12,0,3.64-.18,6.76,0,9.87.88,12.89,1.11,25.89,3,38.63,3.82,25.51,6.78,51.34,13.36,76.18,11.31,42.73,39.59,74.19,73.09,101.69,16.28,13.35,34.73,20.71,55,24.39,20.56,3.75,41.34-8.91,48-28.68,5.65-16.74,4.37-34,3-51a539,539,0,0,1,.57-97.18c2-20.53,6.58-40.65,16.19-59.22,6.54-12.62,15.79-19.28,24.83-17.4,12.54,2.59,17,13,17.69,23.48,1.12,18.31,2.21,37.14-.75,55.08-5.85,35.59-13.19,71-28.56,104.2a117,117,0,0,0-8.21,23.87,50.36,50.36,0,0,0,2.79,31.34c3.22-3.58,5.93-5.73,7.55-8.5,8.36-14.36,16.58-28.81,24.51-43.39,1.56-2.89,2.06-6.52,2.38-9.88,2.82-29.65,5-59.36,8.34-89,2.58-23.1,7.24-45.93,18.64-66.52a35.82,35.82,0,0,1,13.7-13.48c10-5.36,17.08-2,21.32,8.32,5.75,14,4.21,28.7,2.36,43-5.1,39.17-19.23,75.7-37.54,110.26-11.95,22.56-11.86,44.87-6.35,68.21,2.33,9.87,8.86,11.64,15.95,4.17a104.58,104.58,0,0,0,16.1-21.33c15.54-28.4,25.9-58.81,33.14-90.35,1-4.36,1.16-10.29,8.32-9.07,7.51,1.28,6.69,6.91,6,12.31a39.31,39.31,0,0,1-.85,3.87c-7.29,30.1-11.26,60.63-10.17,91.59a66,66,0,0,0,5.44,23.55c3.54,8.1,11.45,8.58,16,1,4.93-8.22,9.9-17.2,11.57-26.45,5.44-30,9.4-60.29,13.88-90.48,1-6.58,8.08-10.56,16.77-9.2,7.65,1.19,7.53,6,6.62,12.33-4,28.16-7.88,56.36-11.1,84.63-.72,6.36,1.31,13,2.24,20.93,2.81-1.93,3.71-2.41,4.44-3.07,15.43-14.29,24.11-32.63,29.42-52.4,4.57-17,7.32-34.45,11-51.68.89-4.23.82-9.77,7.39-9.1,6.31.66,8,5.2,7.56,10.87-.13,1.58-.42,3.14-.61,4.71-3,23.82-6.3,47.6-8.81,71.47a73.74,73.74,0,0,0,1.14,23.51c.88,3.94,5.56,9.24,9.26,9.93,13,2.4,27.44-12.24,26.93-25.33-1.24-31.67,4.49-62,19-90.33,7.61-14.81,12.5-16.52,28.72-13.1.44.09,1-.28,2.18-.64a68.84,68.84,0,0,0,2.05-7.89c3.19-21.93,5.92-43.94,9.48-65.81,3.14-19.25,6.9-38.4,11.05-57.45.64-3,4.8-5.19,7.34-7.76,2.06,3.21,5.57,6.28,5.89,9.64.59,6.2-.59,12.6-1.19,18.9-4.35,45.43-10.53,90.76-12.48,136.28-1.29,30.35,3.32,61,5.64,91.44.31,4,2.75,7.85,4.21,11.77l3,.13c3.15-5.9,6.88-11.57,9.31-17.74,3-7.59,4.67-15.66,7.35-23.37.64-1.87,3.18-4.59,4.47-4.39,2.12.33,4.35,2.38,5.72,4.31,1.11,1.55,1,4,1.85,7.55,5.37-8.18,9.79-15.32,14.62-22.16s11.8-10.29,20.35-10.18c6.8.09,10.73,3.59,12.31,10.08,2.17,8.89-1.71,15.67-11.51,20.84-13.15,6.94-21.65,17.38-23.2,32.6-2.16,21.26,10.71,35.7,30.3,31.41,1.53-.34,3.19-.13,4.72-.47,29-6.35,38.52-20.49,33.37-46.95a72.91,72.91,0,0,0-6.83-19.28c-5.79-11.23-12.28-22.11-18.83-32.94-16-26.56-28.61-54.73-36.68-84.62-8.69-32.19-5.85-63,16.52-89.59,18.07-21.46,54.43-22.59,72.39-1.66,8.12,9.44,13.66,21.2,19.82,32.22,20.74,37.1,10.89,81.17-18.27,113.21a33.43,33.43,0,0,1-7.11,6.22c-6.78,4.09-13.35.63-13-7.22a53.78,53.78,0,0,1,3.79-16c4.17-11.09,9.42-21.8,13.37-33,10.25-29,3.19-54.4-17-76.78-4.87-5.4-11.14-6.72-17.22-3.34-5.11,2.85-10.79,6.55-13.59,11.38-15,25.87-21.51,53.59-11.25,82.66,5.3,15.05,13.2,29.23,20.49,43.52,10.3,20.19,21.91,39.76,31.4,60.3,5.89,12.73,8.9,26.78,13.31,40.53,10.79-8.65,18.89-19.57,20.74-34.23,1.28-10.21,1.51-20.55,3-30.72a148.27,148.27,0,0,1,6-26.9c1-2.77,6.44-4,9.86-5.95.89,3.2,2.71,6.44,2.53,9.57-1.63,28.94-3.72,57.85-5.33,86.78-.24,4.35,1,8.89,2.22,13.15,1.69,5.88,5.85,5.86,9.62,2.34a31.63,31.63,0,0,0,6.7-9.64,232.83,232.83,0,0,0,22.17-101.15c-.06-8.14,3.06-12.11,10.94-13.48,15.88-2.76,17.58-.89,14.59,15.05-4.89,26-8.58,52.14.41,78.16,2.2,6.36,2.65,15.06,11.05,15.4,8.85.35,10.66-8.26,12.7-15a149.79,149.79,0,0,0,5.35-62.62c-1-7.81-3.29-15.46-4.27-23.28-.36-2.87,1.35-6,2.11-9,2.38,1.18,5,2,7.08,3.61,3.09,2.44,5.6,5.57,8.6,8.16,11.31,9.71,18.87,10.07,31.41,1.9a101,101,0,0,1,13.64-7.93c2.57-1.15,7-1.89,8.53-.54s1.8,5.88,1,8.52a92.21,92.21,0,0,1-7.32,18.22c-10.72,19.2-17.87,39.35-17.83,61.61,0,10.27,4.32,13.25,14.1,9.95a42,42,0,0,0,4.35-1.89c17.49-8.43,29.72-22.57,40.33-38.15a27.29,27.29,0,0,0,4.65-14.61c-.41-41.43-1.63-82.84-2.06-124.26-.24-22.39-.35-44.84,1.23-67.14,1.14-16.23,5-32.22,15.52-45.74s27-13.52,36.06.7a49.69,49.69,0,0,1,6.82,15.76c8.39,38.32,3.72,76.72-.57,115-4.07,36.19-15.72,70.46-30.28,103.64-7,16-11.93,31.93-10.11,49.63,1.07,10.47.92,21.07,1.4,31.62.09,1.93.07,3.68.44,7.78,15.24-17.19,35.65-22.12,55.57-24.88,29.8-4.13,53.45-18.48,72.32-41.2,24.72-29.76,35.87-64.9,37.75-102.91,1.6-32.39,2.26-64.85,2.42-97.3.26-52.66,1.43-231.65,1.7-288.78.87-186.27,13.54-403.24-22.9-504.9-24.55-68.48-68.17-89-109.31-102.79-34.22-11.49-168.84-13.05-221.18-13.39,0,0-321.72-.85-541.43,1.86C326.48,47,294.23,48.48,244.86,70.21Zm884.94,1034.25c1.29-1.9,2.05-2.64,2.37-3.54,1.63-4.73,3.4-9.43,4.66-14.27,14.42-55,15.55-111.42,16.91-167.76a42.23,42.23,0,0,0-2.69-14.68c-1-2.86-4-5-6.17-7.49-1.94,2.18-5.1,4.13-5.6,6.6-2.73,13.36-6.09,26.75-6.81,40.28-1.64,30.51-2.09,61.09-2.59,91.65C1129.51,1057.85,1129.81,1080.48,1129.81,1104.46ZM353.36,1244.91l-2.62-.57c-3.92,9.71-7.71,19.47-11.76,29.11-14.63,34.83-16.83,71.49-15.8,108.57.09,3.23,2.54,6.38,3.9,9.58,2.81-2.5,7-4.47,8.17-7.59,4-10.55,8.52-21.31,9.82-32.35,3.14-26.64,4.59-53.49,6.64-80.27C352.37,1262.58,352.81,1253.74,353.36,1244.91Zm34.33-278.26c-14.13,10.61-26.66,103.84-17.63,125.67.86-2.5,1.69-4.38,2.16-6.35,4.16-17.66,9.26-35.15,12.11-53,3-18.61,3.88-37.57,5.36-56.41C389.92,973.52,388.48,970.37,387.69,966.65Zm275.66,168.57c0,3.74-.54,5.81.11,7.39,1.44,3.56-1,8.85,5.24,10.33,5,0,6.79-3.39,8.82-6.09,11.67-15.54,15.59-34.25,20.49-52.51,1.48-5.53-.68-10.75-5.94-12.16-3-.8-8.27,1.32-10.49,3.89C669,1100.61,665.89,1118.81,663.35,1135.22ZM456.4,970.69c-13.49,11.35-27.51,87.27-20.18,102,11-26.81,20.81-53.06,23.09-81.36C459.8,985.24,457.64,978.89,456.4,970.69Z" transform="translate(-56.91 -21.64)"/><path class="cls-6" d="M1113.07,1298.19c-.88,7.9-1.37,15.86-2.73,23.67-3.44,19.93-6.38,39.28-10.25,59.12a94.42,94.42,0,0,1-3.74,13.28c-1.28,2.33-1.13,5.27-8.08,5.27-4.56-1.84-5.2-6-5.29-8.57a64,64,0,0,1,2.5-20.14c7.64-24.27,16-46.64,24.17-70.73,1-2.75,3.29-9.4,3.81-10.18C1114.1,1290.05,1113.39,1294.26,1113.07,1298.19Z" transform="translate(-56.91 -21.64)"/><path class="cls-5" d="M642,995.81c0,8.14-5.94,14.94-13,15-5.82.06-10.81-5.7-10.65-12.3.18-7.25,6.59-14.37,13-14.4C638.09,984.09,642,988.4,642,995.81Z" transform="translate(-56.91 -21.64)"/></g><g id="kgMbrz"><path class="cls-5" d="M83.33,940.39c15.12-1.43,19.86-1.51,35-2.27,30.64-1.69,62.7-7,100.88-16.7,16-4.05,32.06-8.29,48.08-12.47,7-2.29,6.62-6.18,9.39-18.3,1.31-5.88-2.44-7-5.7-9.92-9-8-17.41-16.7-26.22-24.93-3.16-3-6.51-6-10.32-7.85-6.87-3.33-14.13-5.83-21.26-8.6-7.67-3-11.41-8.6-10.39-16.64,1.1-8.61,2-17.42,4.71-25.58,6.5-19.73,13.38-39.4,21.3-58.59,4.8-11.63,11.89-15.73,23.46-12,20.42,6.62,40.5,4.53,61.27,3.56,26.31-1.25,46.55,12.66,62.22,33.54,3,3.94,7.51,7.14,12,9.4,8.21,4.17,16.88,7.46,25.41,11,7.26,3,11,8.34,9.68,16.15-1.39,8.47-3.48,16.85-4.3,25.87,36.84-29.94,71-62,94.85-105.72l-29.62-8.28c-.51-.14-1-.22-1.54-.35-12.88-3.34-12.88-3.34-20.8,7.25-12.56,16.78-38.3,23.22-57.1,13.6-3.4-1.74-6.93-6.42-7.25-10-.25-2.9,3.62-6.93,6.74-9.27,6.25-4.68,10.34-6.26,14.79-10.13,2.68-2.34,3.9-5.3,3.6-6.26-5.57-1.81-13.66-4.94-19.27-6.63a35.09,35.09,0,0,1-21-17c-4.82-8.47-1.43-14.22,8.21-15.22,25.08-2.59,48.52,4.69,72.12,11.39,20.79,5.9,41.7,11.35,62.52,17.17,2.67.74,6,1.35,6,1.35s2.63-6.76,3.19-8.64c4.76-16.11,9-29.66,11.62-46.19,2.41-15.26,2.73-30.93,2.85-46.44.21-26.74-11.34-50-23.34-73-16.74-32-40.67-57.61-70.71-77.41-20-13.16-40.32-25.69-60.62-38.31-6.28-3.9-6.75-6.91-.74-11.86,20.8-17.14,45.1-28,69.62-38.38a284.72,284.72,0,0,1,92-21.64c26.76-1.81,53.87-2.21,80.58-.09,40.11,3.19,79,13.65,116.5,28.08,44.05,16.93,85.74,38.52,120.43,71.23,29.92,28.21,60.91,55.65,87.88,86.53C989,545,1014.65,581,1040,616.94c33.53,47.59,64.45,97,98.24,144.44,26,36.44,53.38,72.08,82.55,106,22.1,25.69,50.17,46.22,73.24,56.72,16.72,8,27.13,10,45.47,13.94,13.76,3,27.49,2.64,41.59,4.11,2,.21,10.5.46,21.8,1.4-13.54,5.5-33.78,8.09-41.46,8.42-27,1.17-42.82-1.55-65.25-8.42-10.93-4.27-32.45-15.07-42.23-21.62-25.07-16.82-32.94-26.59-52.89-49.43-42.3-48.42-79.19-100.78-112.73-155.4-35.57-57.95-77.33-111.15-119.54-164.2a934.36,934.36,0,0,0-78.33-86.84c-32-31.3-66.12-60.07-106.64-79.59-23.15-11.15-47.8-19.28-72-28.21-26.23-9.71-53.66-13.18-81.47-14.17-26.59-.95-53.27-3.87-79.72-2.45a292.57,292.57,0,0,0-86.86,18.13c-12.56,4.71-25,9.83-37.15,15.46-5.4,2.5-10.12,6.56-14.91,10.21-4.46,3.41-4.49,5.82,1.06,9.16,22.52,13.6,45.54,26.59,66.74,42.08,38.56,28.18,64.78,65.89,79.51,111.46,11.22,34.72,10.17,69.54.9,104.38-3.05,11.43-6.65,22.73-10.38,34-.88,2.69-2,6.31-2,6.31s5,2,7.48,2.71q47.37,14.21,94.68,28.61c36.57,11.16,73.05,22.6,109.68,33.59,19.68,5.9,39.59,11,59.36,16.62C862.61,786.8,906.28,800,950.36,811.6c19.77,5.24,40.36,7.35,60.52,11.16a147.57,147.57,0,0,1,22.13,5.71c2.48.89,5.52,4.74,5.38,7.08s-3.91,6.6-9.23,7.78c-14.06,3.14-23,2.21-36.07,1.81a515.26,515.26,0,0,1-58.23-4.76c-16.11-2.32-31.91-6.94-47.78-10.81-26.9-6.56-53.89-12.81-80.59-20.13-29-7.94-57.69-16.77-86.44-25.52-26.17-8-52.79-14.86-78.17-24.89-31.77-12.54-64.63-21-97.22-30.57-4.08-1.2-11.75-3.17-11.75-3.17s-3.65,5.55-5.67,9.43c-26.41,50.61-67,88.07-112,121.69-44.33,33.12-93.34,55.11-146.89,69.35-34.57,9.2-73.84,14.3-108.89,17.77-20.11,2-36.09,3.67-57.45,3.35-12.09.27-23.11-.69-35.19-1.56a45.3,45.3,0,0,1-9.85-1.79C57,942.47,75.92,941.09,83.33,940.39ZM245,812.83c.23,40,25.44,67,68.82,67.57,32,.42,65.14-25.41,65.53-60.48.53-46.54-29.3-71.24-69.09-75.65C279.74,740.9,242.94,776.21,245,812.83Zm147.4-144.77c-1.09,4.56,5.85,10.94,14.88,13.21,17.59,4.45,35.27,8.57,52.78,13.31s30.47,8.64,47.84,13.88l10.32,3.12s5.84-10.1,8-13.72c-3.9-1.1-10.09-2.71-13.39-3.64-31.15-8.69-58.05-16.44-89.41-24.31C413,667.31,394.32,664.62,392.37,668.06ZM234.79,835.44c-13.73-39.51,12.36-83.64,36.23-93.82-6.93-1.2-16.43-4.42-22-4.16-3.54.17-8.69,2.7-10.08,5.62-10.87,22.81-20.93,46-24.11,71.44C213,828.92,218.13,834.55,234.79,835.44Zm151-53.46c1.11,2.14,1.54,1.92,3,5.22,8.53,19.69,5.37,44.86-5.77,66.08,9-7.24,14.95-13,21.87-19.34,6.42-5.93,6.64-19.84,8.32-26.74.62-2.56,2.06-9-2.14-11.81C404.58,791.13,392.65,785.6,385.78,782Zm69.31-76.93c-6.22-1.56-22.83-5.87-22.83-5.87s-2.62,6.82-5.59,9.88c-2.54,2.62-4.16,4.61-8.34,7.15-2.69,1.64-11.26,4.87-8.62,7.6C417.77,732.14,449.13,725,455.09,705.05ZM309.76,892.92a122.1,122.1,0,0,1-14.51-1.65c-3.9-.64-7.09-.9-9.37-1.66-.76,3.73-.83,5.34-1.6,8.57s-.68,3.66-1.72,6.4C288.64,902.87,302.94,897.75,309.76,892.92Z" transform="translate(-56.91 -21.64)"/><path class="cls-6" d="M1020.88,834.85c-1.45,2.71-5.67,1.93-7.29,1.81-18.62-1.33-37.25-2.66-55.84-4.35-48.53-4.39-94.74-19.8-141.86-30.77-23-5.36-45.37-13.54-68-20.46C700.05,766.48,652.2,752,604.42,737.21c-19.62-6.06-34.38-11.07-53.91-17.45-1.45-.47-13.48-3.88-13.48-3.88s5-9.88,6.35-13.52c5.12,1.52,5.12,1.52,11.63,3.61,22.57,7.21,41.13,12.73,63.81,19.57C680.36,744.08,741.88,762.7,803.51,781c36.61,10.86,73.19,21.88,110.16,31.42,27,7,46.66,10.32,74.16,15,9,1.53,20.8,3.35,27.32,4.13C1016.46,831.67,1020.88,832.11,1020.88,834.85Z" transform="translate(-56.91 -21.64)"/><path class="cls-5" d="M256.92,814.36c.78-52.57,45.83-67.15,78.42-55.14,17.77,6.55,37.07,38.27,27.53,66.6-13.81,41-64.87,49.2-93.51,23.86C257.84,839.45,258,824.87,256.92,814.36Zm8.67-2.06c.3,25.09,18.76,43,43.94,42.69,24.13-.33,46.71-21.68,45.86-44.4-1-26.31-14.31-47.58-41.22-46.79C286.27,764.59,265.27,785,265.59,812.29Z" transform="translate(-56.91 -21.64)"/><path class="cls-5" d="M339.88,798.21c7.88-.26,9.55,3.93,9.06,10a37.62,37.62,0,0,1-2.47,11.5c-1.52,3.58-4.36,9.36-6.49,9.3-4.19-.11-8.36-3.47-12.37-5.79a3.91,3.91,0,0,1-1.31-3.41c1.54-6.31,3.82-12.44,5.43-18.67C332.5,798.14,336.28,798.31,339.88,798.21Zm4,13.14c.31-1.38,1-7.42.07-8.22a4.5,4.5,0,0,0-4.61-1.16c-2,.35-3.42,1-4.17,2.84a45.84,45.84,0,0,0-2.62,10.74c-.55,4.05-.87,3.29.34,5.18,1.71,1.13,6.82,3.6,8.15.48A54.31,54.31,0,0,0,343.86,811.35Z" transform="translate(-56.91 -21.64)"/></g></svg>