<svg id="Capa_1" data-name="Capa 1" xmlns="http://www.w3.org/2000/svg" viewBox="0 0 1361.79 1215.75"><defs><style>.cls-1{fill:#2b56a3;}.cls-2{fill:#6fc7da;}.cls-3{fill:#d0eaee;}.cls-4{fill:none;}.cls-5{fill:#010101;}.cls-6{fill:#fff;}</style></defs><title>logo</title><polygon class="cls-1" points="228.03 880.68 221.66 911.12 280.52 884.88 228.03 880.68"/><path class="cls-1" d="M218.36,880.79c-2.14-39,37-76.65,69.61-73,42.47,4.74,74.2,31.1,73.61,80.68-.46,37.41-35.86,64.89-69.9,64.41C245.38,952.23,218.59,923.35,218.36,880.79Zm20.73,2.5c1.21,11.25.73,23.72,13.1,34.59,30.55,26.87,75.12,8.61,85.91-25,8.18-25.35-7.94-55.45-27-62.43C281.64,820.6,239.85,827.25,239.1,883.3Z" transform="translate(-30.54 -77.52)"/><path class="cls-1" d="M209.71,911.67c-6.8-2.44-14.58-3.93-20.07-7.66-3.48-2.38-5.89-8.6-4.75-12.25,7.06-22.51,12.18-45.68,20.2-68a84.73,84.73,0,0,1,6-12.62c7.11-12.59,14.83-13.19,31.18-10.31,4.51.8,8.95,1.87,15,3.13-20,13.7-29,29.6-39,47.8-10.43,19-9.77,40.33-2.43,59.92C214.91,912.26,210.65,911.07,209.71,911.67Z" transform="translate(-30.54 -77.52)"/><path class="cls-1" d="M374.6,852.42c7.1,3.7,14.49,6.95,21.15,11.33,2.08,1.37,3.55,6.1,2.92,8.71-2.61,10.59-3.91,25.44-9.33,34.57-4.93,8.3-25.64,21.81-34.44,27.78,12.12-22.58,11.15-64.89,2.68-89C358.51,845.33,373.67,852.95,374.6,852.42Z" transform="translate(-30.54 -77.52)"/><path class="cls-2" d="M380.29,794.34c-6.15-4.35,10.4-5.65,18.78-14.32,5.28-4.23,8-8.61,10.58-15.11,7.28,1.55,20.7,5.65,27.79,7.56C429.9,797.67,397.86,803.91,380.29,794.34Z" transform="translate(-30.54 -77.52)"/><path class="cls-3" d="M407.54,761.73c-6.37,18.25-17.44,18.16-24,21.83-3.66,2-9.5,3.74-9.22,7,.3,3.55,4.24,8.77,8.08,9.77,16.7,4.32,39.82,3.25,52.1-15.89,5.06-7.88,8.8-14.92,16.87-12,7.81,2.85,19.36,7.34,27.41,9.55,3,.82,17.52,6.79,21.36,8.24-24,44.17-53.9,76.15-90.42,107.53C390.1,914.1,386,913,387.44,899.6c.56-3.2,1-6.42,1.7-9.61,1.19-5.8,2.82-11.53,3.63-17.38,1-7.35,1.4-8.69-5.22-11.68-2.46-1.12-4.94-2.18-7.46-3.14-15.62-6-29-13.88-40.39-27.53-15.77-16.34-45.14-27.34-75.49-20.56-5,1.12-14.4-2.09-19.5-3-7.94-1.42-13.38-5.26-21.33-6.68-12.2-2.18-10.77,3.87-16.5,14.68C193.46,840,189.9,856,184.6,883.9c-2.9,15.22-5.72,16.76,8.82,22.68,6.25,2.54,7.78,5.66,13.86,8.55,3,1.43,8.52,2.95,11,5.29,9.73,9.2,17.35,17,27.44,25.76,3.82,3.33,10,11,10,15.77,0,28.45-23.2,29.7-35.26,32.26-30.78,6.54-43.93,9.52-79.9,14-2.57.45-30.63,2.47-35,2.47,0-14.73.17-39.12,0-56-1.11-94.2-.79-181.76-1.41-276-.43-64.78.66-129.59.61-194.37,0-54.8-1.47-109.62-1-164.4.38-40.65-3.53-80.25,10.59-118.58,20.6-55.91,79-98.7,137.84-107.89,25.44-4,53.9-4.64,79.73-4.64,187.62,0,375.34-.83,563,.1,72.32.36,144.69-5.84,216.94-2.64,52.29,2.32,109.56,24,142.59,66.86,17.4,22.61,31.05,55.55,38.7,83.11,7.14,25.78,9.38,59.48,11,87.33,3.06,52-3.42,102.77-4.1,154.82-1,77.46-1.24,154-1.27,231.49,0,93.4-1,175.64-.61,269,0,3.4-.23,14.22-.23,17.61,0,4.74.62,13.38-.22,13.92-17.72-8.65-38.16-16.56-48.94-25.17-37.28-29.74-67.31-63.13-96.49-100.33-39.9-50.86-72-106.77-109.15-159.36-23.2-32.79-46.95-71.48-71.53-103.22-44.11-57-90.61-106.31-148.37-149.52-37-27.68-77.37-46.17-121.88-58.44-29-8-54.78-17.79-84.6-20.92-29-3.06-57.72-.73-86.86,1.92A339.14,339.14,0,0,0,460.1,409.2c-31.51,9.57-54.26,19.15-80.61,39.51-9.05,7-5.73,9.86,4.37,15.13,40.22,20.89,67.1,37.36,96.66,72.11,23.36,27.48,42.42,62.89,49.15,98.4,3.25,17.18,2.39,37.84.31,55.37-2.26,19.12-8.56,40.41-13.29,59.17-2.59,10.27-6.06,10.47-16.14,7.73-31.47-8.52-63.8-15.56-95.55-22.93-13.92-1.79-24-5.07-37.65-5.27-8.91-.12-13.14,2.61-8.85,10.67,4.73,8.91,6,10,15.81,13,5.59,1.67,10.26,2.36,15.82,4.12C394.79,757.5,407.11,760.63,407.54,761.73Z" transform="translate(-30.54 -77.52)"/><path class="cls-2" d="M1304.35,1098.13c0,24.7-1.82,40.86-8.74,64.85-15.55,51.21-35.22,88.66-85.26,110.67-10.54,4.64-43.83,9.5-55.42,10.17-8.37.49-28.66,1.67-37.07,1.51-9.66-.19-13.19-3.91-22.84-4.08-6.19-.1-30.15,5.25-51.57,2.35-53.4-.41-30.58-3.77-41.85-3.11-15.25.9,0,0-28.21.85-20.64.61-22.2-1.65-35-2.54-8.87-.61-15.73,7.35-31,6.53-23.08-1.24-23.89-4.9-40.79-4.9-22.88,0-39.94,2.45-62.82,2.45-13.95,0-31,0-49.46-1.63-4.17-.37-25.5-3.27-29.69-3.27-8.59,0-18.79,6.65-27.38,6.65-11.4,0-11.8-2.56-23.21-2.56-6.87,0-20.83-4.44-27.69-4.44-5.15,0-11.21.36-16.37.36-13,0-26.3,4-39.29,4-10.78,0-14.39-3.15-25.17-3.15-8.85,0-24.91-.36-33.77-.36-6,0-10,1.17-16,1.16H474.93c-13.74,0-15.63-.82-29.37-.82-12.85,0-22.24,2.12-43.88-.56-17-2.1-26.73,3.82-36.9,3.82-7,0-15.34-6.42-29.44-6.43-7.63,0-8.62.72-16.25.71-6.44,0-19.51-.73-25.95-.74-17.44,0-35.16-1-52.23-4.24-23.21-4.39-42.6-16.63-59.28-33.81-26.8-27.59-51.69-56.46-60.72-94.89-5.83-24.85-9.15-50.34-12.75-75.64-2-13.86-2-28-3.31-41.95-.54-5.94,1.23-10.19,7.21-10.78,30.58-3,61.83-4.07,91.62-10.8,53.48-12.09,105.35-27.2,151.19-59.1C403.28,910.76,461,867.19,493,816.77c4.33-6.82,8.23-13.91,12.21-20.94,2.81-5,6.37-6.19,12.09-4.52,33.87,9.93,58.29,16.37,91.09,30C624.46,828,646.14,832.9,662.87,838c26.25,8.08,61.3,19,87.72,26.49,41.77,11.8,67.8,16.27,109.55,28.1,35.29,10,75.72,18.73,112.16,19.89,12.32.4,24.66.75,37-.43,4.29-.41,9.55-2,8.39-7.59-.63-3-4.33-7-7.33-7.68-17-4.06-38.47-3.42-55.55-7.11-18.67-4-37.5-7.55-55.89-12.69-48.55-13.58-96.93-27.78-145.31-42q-104.81-30.73-209.51-61.84c-8-2.38-11.26-4.23-19.35-6.31-7.26-1.85-8.8-4.93-6-12.13a248.63,248.63,0,0,0,17-81.17c1.15-34-8.17-65.43-23.89-95.32-25.28-48.12-63.5-80.67-109.79-107-7-4-14.93-5.81-22.12-9.49-7.67-3.94-8.59-6.21-1.08-10.89,12.48-7.77,20.22-14.93,33.75-20.63,25.43-10.72,61.79-26.44,89-31.15,33.41-5.79,66.53-3.64,99.74-.41,21.7,2.11,43.72,3.48,64.86,8.37,58.49,13.56,119,36.74,165.9,74.54,24.67,19.92,49.68,44,72.17,66.46,40,40,73.19,84.12,108.27,128.24,40.57,51,69,106.68,105.89,160.16,20.77,30.12,44.27,59.84,66.77,88.78,5.62,7.22,18.86,23.11,24.85,30,22.65,26.23,64.31,44.43,94.94,60.55,5.42,2.85-.34,31.41-.55,37.8v44.54Z" transform="translate(-30.54 -77.52)"/><path class="cls-4" d="M409,768.33l28.43,9s-5.44,17.27-17.69,22.44-31.24,5.68-36.23,1.48-10-6.24-2.67-8.69,16-5.83,19.86-8.42S409,768.33,409,768.33Z" transform="translate(-30.54 -77.52)"/><g id="kgMbrz"><path class="cls-5" d="M57.31,1012.19c15.3-1.44,20.1-1.54,35.45-2.3,31-1.73,63.43-7.14,102.06-16.89,16.24-4.1,32.43-8.39,48.64-12.62,7.08-2.32,6.7-6.25,9.5-18.51,1.32-6-2.47-7.12-5.76-10-9.12-8.1-17.61-16.89-26.53-25.23-3.2-3-6.58-6.06-10.44-7.94-6.95-3.37-14.29-5.91-21.5-8.7-7.77-3-11.55-8.7-10.52-16.84,1.11-8.7,2.06-17.62,4.77-25.89,6.57-20,13.53-39.86,21.53-59.28,4.87-11.77,12-15.92,23.74-12.13,20.66,6.71,41,4.6,62,3.61,26.62-1.25,47.1,12.81,62.95,33.94,3,4,7.6,7.22,12.12,9.52,8.31,4.23,17.08,7.55,25.7,11.13,7.36,3.05,11.09,8.44,9.8,16.34-1.41,8.59-3.52,17-4.35,26.19,37.27-30.29,71.84-62.75,96-107l-30-8.37c-.51-.15-1-.23-1.56-.36-13-3.39-13-3.39-21,7.33-12.7,17-38.74,23.5-57.76,13.76-3.45-1.76-7-6.5-7.34-10.14-.26-2.93,3.66-7,6.82-9.37,6.32-4.73,10.46-6.33,15-10.27,2.71-2.36,3.94-5.36,3.64-6.32-5.64-1.83-13.83-5-19.5-6.71A35.51,35.51,0,0,1,359.43,742c-4.88-8.58-1.45-14.39,8.31-15.4,25.37-2.63,49.09,4.75,73,11.52,21,6,42.2,11.49,63.25,17.37,2.71.75,6.1,1.36,6.1,1.36s2.66-6.83,3.22-8.73c4.82-16.3,9.11-30,11.76-46.74,2.45-15.43,2.77-31.3,2.89-47,.22-27.05-11.48-50.6-23.62-73.82-16.94-32.37-41.14-58.28-71.53-78.32-20.2-13.31-40.8-26-61.34-38.76-6.36-3.95-6.83-7-.75-12,21-17.34,45.63-28.35,70.44-38.84a288.19,288.19,0,0,1,93.08-21.89c27.07-1.84,54.5-2.23,81.53-.08,40.58,3.23,79.92,13.8,117.87,28.4,44.57,17.13,86.74,39,121.84,72.07,30.27,28.54,61.63,56.3,88.92,87.55,29.21,33.45,55.19,69.88,80.82,106.25,33.93,48.15,65.2,98.18,99.39,146.14,26.29,36.87,54,72.92,83.52,107.23,22.36,26,50.76,46.75,74.11,57.4,16.91,8.12,27.45,10.08,46,14.1,13.93,3,27.82,2.67,42.08,4.16,2,.2,10.62.45,22.06,1.42-13.7,5.56-34.17,8.17-41.95,8.52-27.33,1.19-43.33-1.57-66-8.52-11.06-4.32-32.83-15.25-42.72-21.88-25.35-17-33.33-26.9-53.51-50-42.79-49-80.12-102-114-157.23-36-58.63-78.24-112.45-120.94-166.12a945,945,0,0,0-79.25-87.87C841.48,500.61,807,471.51,766,451.75c-23.42-11.28-48.36-19.5-72.82-28.56-26.55-9.82-54.29-13.33-82.44-14.32-26.9-1-53.9-3.92-80.66-2.49a295.89,295.89,0,0,0-87.88,18.34c-12.71,4.75-25.28,9.94-37.59,15.64-5.46,2.53-10.25,6.63-15.09,10.33-4.51,3.45-4.54,5.89,1.08,9.27,22.78,13.76,46.08,26.91,67.53,42.57,39,28.51,65.54,66.66,80.45,112.77,11.36,35.13,10.29,70.36.91,105.61-3.08,11.57-6.73,23-10.51,34.38-.89,2.72-2,6.39-2,6.39s5,2,7.57,2.74q47.92,14.37,95.79,29c37,11.28,73.91,22.87,111,34,19.91,6,40.06,11.13,60,16.82,44.38,12.61,88.57,25.94,133.16,37.7,20,5.29,40.83,7.43,61.23,11.29a149.24,149.24,0,0,1,22.39,5.79c2.51.88,5.58,4.8,5.46,7.16s-4,6.68-9.35,7.88c-14.23,3.17-23.26,2.22-36.49,1.84A521.79,521.79,0,0,1,918.81,911c-16.31-2.34-32.29-7-48.35-10.94-27.22-6.64-54.52-13-81.54-20.38-29.3-8-58.36-17-87.45-25.81-26.47-8.05-53.41-15-79.08-25.18C590.25,816,557,807.49,524,797.78c-4.13-1.22-11.89-3.21-11.89-3.21s-3.69,5.62-5.73,9.55C479.68,855.33,438.56,893.22,393,927.23,348.17,960.74,298.59,983,244.41,997.4c-35,9.31-74.72,14.46-110.18,18-20.35,2-36.51,3.7-58.12,3.39-12.23.27-23.39-.69-35.61-1.58a45.11,45.11,0,0,1-10-1.81C30.71,1014.28,49.8,1012.9,57.31,1012.19ZM220.84,883.12c.23,40.42,25.74,67.78,69.63,68.36,32.37.43,65.9-25.7,66.3-61.18.54-47.08-29.65-72.08-69.91-76.54C256,810.35,218.79,846.07,220.84,883.12ZM370,736.65c-1.1,4.61,5.93,11.07,15.06,13.38,17.8,4.51,35.69,8.67,53.4,13.47s30.82,8.74,48.4,14l10.44,3.16s5.91-10.22,8.08-13.88c-3.94-1.12-10.21-2.75-13.55-3.68-31.52-8.8-58.74-16.63-90.46-24.6C390.85,735.9,372,733.17,370,736.65ZM210.55,906c-13.89-40,12.51-84.63,36.65-94.92-7-1.22-16.63-4.48-22.28-4.21-3.58.16-8.8,2.74-10.21,5.68-11,23.09-21.18,46.56-24.38,72.29C188.51,899.41,193.68,905.11,210.55,906Zm152.76-54.08c1.12,2.17,1.56,2,3,5.29,8.63,19.9,5.43,45.39-5.85,66.86,9.12-7.34,15.12-13.11,22.13-19.57,6.5-6,6.71-20.07,8.41-27.06.62-2.58,2.08-9.12-2.17-12C382.34,861.16,370.26,855.57,363.31,851.92Zm70.12-77.84c-6.3-1.58-23.1-5.94-23.1-5.94s-2.65,6.9-5.66,10c-2.57,2.65-4.22,4.67-8.44,7.24-2.72,1.66-11.39,4.92-8.72,7.68C395.67,801.49,427.4,794.31,433.43,774.08Zm-147,190.09a122.15,122.15,0,0,1-14.68-1.68c-3.95-.65-7.18-.91-9.48-1.68-.77,3.77-.84,5.4-1.62,8.67s-.68,3.7-1.73,6.47C265,974.23,279.49,969,286.39,964.16Z" transform="translate(-30.54 -77.52)"/><path class="cls-6" d="M1005.88,905.4c-1.48,2.74-5.73,2-7.38,1.84-18.84-1.36-37.69-2.68-56.5-4.39-49.11-4.45-95.86-20-143.52-31.13-23.29-5.43-45.9-13.7-68.82-20.7-48.38-14.78-96.79-29.47-145.14-44.4C564.67,800.48,549.72,795.41,530,789c-1.47-.48-13.64-3.92-13.64-3.92s5.1-10,6.42-13.68c5.18,1.54,5.18,1.54,11.77,3.64,22.83,7.3,41.61,12.88,64.57,19.8,62.27,18.76,124.51,37.6,186.86,56.09,37,11,74.05,22.16,111.46,31.79,27.3,7,47.21,10.44,75,15.16,9.09,1.54,21,3.38,27.64,4.17C1001.4,902.18,1005.88,902.64,1005.88,905.4Z" transform="translate(-30.54 -77.52)"/><path class="cls-5" d="M232.94,884.66c.79-53.18,46.37-67.93,79.35-55.79,18,6.63,37.51,38.73,27.86,67.39-14,41.5-65.63,49.78-94.6,24.13C233.87,910.06,234,895.3,232.94,884.66Zm8.77-2.08c.3,25.39,19,43.54,44.46,43.21,24.41-.33,47.26-21.94,46.4-44.93-1-26.62-14.47-48.13-41.7-47.35C262.62,834.32,241.38,855,241.71,882.58Z" transform="translate(-30.54 -77.52)"/><path class="cls-5" d="M316.87,868.32c8-.25,9.66,4,9.16,10.13a38.21,38.21,0,0,1-2.5,11.63c-1.53,3.6-4.41,9.46-6.57,9.4-4.24-.12-8.46-3.52-12.51-5.86a4,4,0,0,1-1.33-3.46c1.56-6.38,3.87-12.59,5.5-18.89C309.39,868.27,313.24,868.43,316.87,868.32Zm4,13.31c.31-1.4,1.07-7.5.07-8.33-1.79-1.46-2.64-1.53-4.67-1.16s-3.46,1-4.22,2.86a46.5,46.5,0,0,0-2.65,10.87c-.56,4.09-.88,3.32.35,5.24,1.73,1.15,6.9,3.64,8.24.48A54.25,54.25,0,0,0,320.9,881.63Z" transform="translate(-30.54 -77.52)"/></g><g id="jWJmVV"><path class="cls-5" d="M272,1293.23a103.18,103.18,0,0,1-20.72-2.35c-39.08-8.21-69.92-29.28-96.36-58.31C127,1201.95,112.57,1165.2,107,1125.11c-4.4-31.66-6.07-63.72-8.38-95.65l-.49-30.81c-.19-30.15-.54-60.28-.48-90.42.07-36.9.91-73.78.68-110.67C97.49,659.61,96,521.67,95.51,383.73c-.15-39.25.88-78.61,3.74-117.74,3.9-53.6,21.08-102,62.15-139.54,24.54-22.41,52.86-36,85.77-41.69,36.69-6.4,69.22-6.22,109.87-5.94,26.37.18,53.23.12,79.62,0Q676.3,78,915.94,77.52c63.28,0,126.57,1.6,189.84,2,44.47.28,85.7,11.12,123,35.59,26.46,17.35,46.52,40.74,61.76,68.2,19.29,34.77,26.06,73,30.63,112,8.26,70.46,4.59,134.56,4.63,205.07,0,68.16-1.32,142.72-1.36,210.88l-.9,333.84c-.42,24.78-.49,49.57-1.41,74.31-1.46,38.78-10.07,75.5-31,109-20.07,32-58.12,55-84.42,61.83-11,2.55-19.83,3.21-31.81,3.06-1.8,0-20.93-.08-38-.14Zm901.78-18.56c2.21,0,11.25.17,13.4,0,20.28-1.58,49.49-19.46,67.37-41,25.24-30.38,36.62-66.25,38.53-105.05,1.64-33.07,2.32-66.2,2.48-99.33.26-53.76,1.46-236.47,1.73-294.79.88-190.15,13.83-411.63-23.38-515.41-25.06-69.9-69.59-90.84-111.58-104.93-34.93-11.73-172.35-13.33-225.79-13.66,0,0-328.42-.87-552.7,1.9-81.31,1-114.24,2.52-164.63,24.69-78.69,34.63-91.1,150.34-92.09,229.31-1.18,95.13.1,597.31.93,661.6,0,3.72-.18,6.9,0,10.07.91,13.16,1.14,26.43,3.08,39.43,3.9,26,6.92,52.41,13.63,77.76,11.55,43.62,40.41,75.73,74.61,103.8,16.62,13.62,35.45,21.14,56.13,24.9a41.12,41.12,0,0,0,7.8.67h890.44Z" transform="translate(-30.54 -77.52)"/></g></svg>