<svg id="Capa_1" data-name="Capa 1" xmlns="http://www.w3.org/2000/svg" viewBox="0 0 1336.94 929.39"><defs><style>.cls-1{fill:#2b56a3;}.cls-2{fill:#6fc7da;}.cls-3{fill:#d0eaee;}.cls-4{fill:none;}.cls-5{fill:#010101;}.cls-6{fill:#fff;}</style></defs><title>logo_noborder</title><polygon class="cls-1" points="223.64 864.53 217.39 894.42 275.17 868.65 223.64 864.53"/><path class="cls-1" d="M234.56,977.72c-2.1-38.27,36.36-75.25,68.33-71.68,41.69,4.65,72.84,30.53,72.27,79.21-.45,36.73-35.2,63.71-68.63,63.24C261.08,1047.84,234.77,1019.49,234.56,977.72Zm20.35,2.45c1.18,11,.71,23.29,12.87,34,30,26.38,73.75,8.45,84.34-24.51,8-24.89-7.79-54.44-26.55-61.29C296.67,918.62,255.65,925.15,254.91,980.17Z" transform="translate(-50.39 -189.18)"/><path class="cls-1" d="M226.06,1008c-6.68-2.39-14.32-3.86-19.7-7.52-3.42-2.33-5.79-8.45-4.66-12,6.92-22.1,12-44.84,19.83-66.76a83.22,83.22,0,0,1,5.92-12.39c7-12.36,14.56-13,30.61-10.12,4.42.78,8.78,1.83,14.7,3.07-19.62,13.45-28.5,29.06-38.27,46.92-10.24,18.7-9.6,39.6-2.39,58.83C231.17,1008.6,227,1007.44,226.06,1008Z" transform="translate(-50.39 -189.18)"/><path class="cls-1" d="M387.94,949.86c7,3.63,14.23,6.82,20.76,11.12,2,1.34,3.49,6,2.87,8.55-2.57,10.4-3.85,25-9.16,33.94-4.85,8.14-25.18,21.41-33.81,27.27,11.9-22.16,10.95-63.71,2.63-87.36C372.15,942.89,387,950.37,387.94,949.86Z" transform="translate(-50.39 -189.18)"/><path class="cls-2" d="M393.52,892.84c-6-4.27,10.21-5.55,18.44-14.05,5.18-4.16,7.86-8.45,10.39-14.84,7.14,1.52,20.32,5.55,27.28,7.42C442.23,896.1,410.77,902.24,393.52,892.84Z" transform="translate(-50.39 -189.18)"/><path class="cls-3" d="M420.28,860.82c-6.25,17.92-17.11,17.83-23.58,21.43-3.6,2-9.32,3.68-9,6.84.3,3.48,4.16,8.61,7.93,9.59,16.39,4.24,39.1,3.2,51.14-15.6,5-7.74,8.65-14.65,16.56-11.77,7.67,2.79,19,7.2,26.91,9.37,2.94.81,17.2,6.66,21,8.09-23.53,43.36-52.93,74.76-88.78,105.57-19.24,16.06-23.29,15-21.87,1.83.55-3.14,1-6.3,1.67-9.43,1.17-5.69,2.77-11.32,3.56-17.07,1-7.21,1.38-8.53-5.12-11.47-2.41-1.1-4.85-2.14-7.32-3.08-15.33-5.9-28.44-13.63-39.65-27-15.48-16-44.31-26.85-74.11-20.18-4.89,1.1-14.13-2.05-19.15-3-7.79-1.39-13.14-5.17-20.94-6.56-12-2.14-10.57,3.8-16.2,14.41-13.17,24.82-16.67,40.58-21.87,68-2.85,14.95-5.61,16.46,8.66,22.26,6.13,2.5,7.64,5.57,13.61,8.4,3,1.4,8.37,2.9,10.79,5.18,9.56,9,17,16.66,26.94,25.3,3.74,3.27,9.82,10.81,9.82,15.47,0,27.93-22.78,29.16-34.62,31.68-30.22,6.42-43.12,9.34-78.43,13.76-2.52.44-30.08,2.43-34.38,2.43,0-14.47.17-38.41,0-55-1.09-92.48-.78-178.44-1.39-270.92-.42-63.6.65-127.22.59-190.82-.05-53.8-1.45-107.62-.95-161.4.37-39.91,4.91-74.82,18.78-112.44,20.23-54.89,69.2-100.86,126.94-109.89,25-3.9,52.92-4.56,78.27-4.56,184.21,0,368.5-.82,552.7.1,71,.35,142.05-5.73,213-2.59,51.34,2.28,107.56,23.53,140,65.64,17.08,22.19,30.49,54.53,38,81.59,7,25.31,9.21,58.39,10.76,85.73,3,51,3.74,99,3.08,150.06-1,76.05,0,150,0,226.1,0,91.7-.05,176.38.34,268.08,0,3.34-.23,14-.23,17.29,0,4.65-8.68,12.29-9.5,12.82-17.4-8.49-37.47-16.26-48-24.71-36.6-29.2-66.08-62-94.73-98.49-39.17-49.94-70.64-104.82-107.16-156.46-22.78-32.2-46.09-70.18-70.23-101.34-43.3-55.92-89-104.37-145.67-146.79-36.32-27.18-76-45.32-119.66-57.37-28.49-7.86-53.78-17.46-83.06-20.54-28.49-3-56.67-.71-85.28,1.89a333,333,0,0,0-68.44,13.46c-30.93,9.4-53.27,18.8-79.14,38.79-8.89,6.86-5.63,9.68,4.29,14.85,39.48,20.51,65.88,36.68,94.9,70.79,22.93,27,41.65,61.75,48.24,96.6,3.2,16.87,2.35,37.15.31,54.35-2.22,18.77-8.41,39.68-13,58.09-2.54,10.08-5.95,10.28-15.84,7.59-30.9-8.36-62.64-15.27-93.8-22.51-13.67-1.76-23.53-5-37-5.17-8.74-.12-12.9,2.56-8.69,10.47,4.65,8.74,5.85,9.84,15.52,12.72,5.49,1.64,10.07,2.31,15.53,4C407.76,856.67,419.85,859.74,420.28,860.82Z" transform="translate(-50.39 -189.18)"/><path class="cls-4" d="M421.72,867.3l27.91,8.82s-5.34,17-17.36,22-30.66,5.58-35.57,1.45-9.84-6.12-2.62-8.53,15.75-5.73,19.5-8.26S421.72,867.3,421.72,867.3Z" transform="translate(-50.39 -189.18)"/><g id="kgMbrz"><path class="cls-5" d="M76.66,1106.79c15-1.42,19.74-1.5,34.81-2.26,30.44-1.69,62.28-7,100.2-16.59,16-4,31.85-8.22,47.75-12.38,7-2.27,6.57-6.14,9.32-18.18,1.3-5.85-2.42-7-5.66-9.87-9-7.94-17.29-16.58-26-24.76-3.14-2.93-6.45-5.95-10.25-7.79-6.82-3.3-14-5.81-21.11-8.54-7.62-2.95-11.34-8.54-10.33-16.54,1.09-8.55,2-17.3,4.69-25.42,6.45-19.6,13.28-39.14,21.14-58.21,4.78-11.55,11.81-15.63,23.31-11.9,20.27,6.58,40.22,4.51,60.85,3.54,26.14-1.23,46.25,12.58,61.8,33.32,2.95,3.92,7.46,7.09,11.9,9.34,8.15,4.14,16.77,7.41,25.23,10.93,7.22,3,10.89,8.28,9.63,16-1.38,8.43-3.46,16.75-4.28,25.72,36.59-29.74,70.53-61.61,94.22-105L474.41,880c-.5-.14-1-.22-1.53-.35-12.79-3.32-12.79-3.32-20.66,7.2-12.47,16.67-38,23.07-56.71,13.51-3.38-1.73-6.89-6.37-7.2-9.95-.25-2.88,3.6-6.89,6.7-9.2,6.2-4.65,10.26-6.22,14.69-10.08,2.66-2.32,3.86-5.26,3.57-6.21-5.53-1.79-13.57-4.91-19.15-6.58a34.87,34.87,0,0,1-20.84-16.84c-4.79-8.42-1.42-14.12,8.16-15.12,24.9-2.58,48.19,4.66,71.62,11.31,20.65,5.86,41.43,11.28,62.1,17.06,2.66.74,6,1.34,6,1.34s2.61-6.71,3.16-8.57c4.73-16,8.94-29.46,11.55-45.89,2.4-15.15,2.73-30.72,2.83-46.12C538.9,729,527.42,705.83,515.5,683c-16.62-31.78-40.39-57.22-70.23-76.89-19.83-13.07-40.05-25.51-60.22-38-6.24-3.88-6.71-6.86-.74-11.79,20.66-17,44.8-27.83,69.16-38.13a283,283,0,0,1,91.38-21.5c26.58-1.8,53.5-2.19,80-.08,39.84,3.17,78.46,13.55,115.73,27.89,43.75,16.82,85.15,38.25,119.62,70.75,29.73,28,60.5,55.28,87.29,86,28.68,32.84,54.18,68.6,79.35,104.31,33.31,47.27,64,96.39,97.58,143.48,25.81,36.2,53,71.59,82,105.28,21.95,25.51,49.83,45.9,72.76,56.34,16.61,8,26.95,9.91,45.16,13.85,13.67,3,27.3,2.61,41.31,4.09,2,.2,10.43.45,21.66,1.39-13.44,5.46-33.54,8-41.18,8.36-26.82,1.16-42.53-1.54-64.81-8.36-10.86-4.24-32.23-15-41.94-21.49-24.89-16.7-32.72-26.4-52.53-49.09-42-48.1-78.66-100.11-112-154.38-35.33-57.56-76.81-110.4-118.73-163.09a927.68,927.68,0,0,0-77.81-86.26c-31.82-31.09-65.68-59.66-105.93-79.06-23-11.08-47.48-19.15-71.49-28-26.06-9.64-53.3-13.08-80.93-14.06-26.4-.94-52.91-3.85-79.19-2.44a290.42,290.42,0,0,0-86.27,18c-12.48,4.66-24.83,9.76-36.91,15.35-5.36,2.49-10.06,6.51-14.81,10.14-4.42,3.38-4.45,5.78,1.06,9.1,22.36,13.51,45.23,26.42,66.29,41.79,38.3,28,64.35,65.45,79,110.71,11.15,34.49,10.11,69.07.89,103.68-3,11.36-6.61,22.59-10.32,33.75-.87,2.67-2,6.27-2,6.27s5,2,7.44,2.7q47.05,14.11,94,28.42c36.32,11.08,72.56,22.46,108.94,33.36,19.55,5.86,39.33,10.93,59,16.51,43.57,12.38,87,25.45,130.73,37,19.64,5.19,40.09,7.3,60.12,11.08a143.81,143.81,0,0,1,22,5.68c2.47.87,5.48,4.71,5.36,7s-3.9,6.56-9.17,7.74c-14,3.1-22.84,2.18-35.83,1.79a512.35,512.35,0,0,1-57.85-4.72c-16-2.3-31.7-6.9-47.47-10.74-26.71-6.52-53.53-12.74-80.05-20-28.77-7.88-57.3-16.66-85.85-25.34-26-7.9-52.43-14.77-77.64-24.73-31.56-12.46-64.2-20.82-96.57-30.36-4.05-1.2-11.68-3.16-11.68-3.16s-3.62,5.52-5.62,9.38C491.33,952.81,451,990,406.26,1023.4c-44,32.89-92.71,54.76-145.9,68.89-34.34,9.13-73.35,14.2-108.16,17.65-20,2-35.85,3.63-57.06,3.33-12,.27-23-.68-35-1.55a44.35,44.35,0,0,1-9.78-1.78C50.57,1108.84,69.3,1107.49,76.66,1106.79Zm160.56-126.7c.22,39.68,25.26,66.55,68.35,67.11,31.78.42,64.7-25.23,65.09-60.06.53-46.23-29.1-70.78-68.63-75.15C271.75,908.63,235.21,943.7,237.23,980.09Zm146.4-143.82c-1.08,4.53,5.82,10.87,14.78,13.13,17.47,4.42,35,8.5,52.43,13.22s30.25,8.58,47.51,13.78l10.26,3.1s5.8-10,7.93-13.63c-3.86-1.1-10-2.7-13.29-3.61-30.94-8.64-57.67-16.32-88.81-24.15C404.13,835.54,385.57,832.87,383.63,836.27ZM227.11,1002.55c-13.63-39.24,12.28-83.09,36-93.19-6.9-1.19-16.33-4.4-21.88-4.14-3.52.17-8.63,2.69-10,5.58-10.81,22.66-20.8,45.71-23.94,71C205.48,996.07,210.56,1001.67,227.11,1002.55Zm150-53.1c1.1,2.13,1.53,1.91,2.95,5.19,8.47,19.55,5.33,44.55-5.74,65.64,9-7.2,14.85-12.87,21.73-19.21,6.38-5.89,6.6-19.7,8.26-26.57.61-2.53,2-9-2.13-11.73C395.76,958.52,383.91,953,377.09,949.44ZM445.93,873c-6.18-1.54-22.67-5.83-22.67-5.83s-2.6,6.78-5.56,9.81c-2.52,2.59-4.14,4.58-8.28,7.11-2.68,1.63-11.19,4.82-8.56,7.53C408.86,899.93,440,892.88,445.93,873ZM301.58,1059.64a119.64,119.64,0,0,1-14.41-1.64c-3.88-.65-7.05-.89-9.31-1.65-.75,3.7-.83,5.3-1.58,8.52s-.67,3.63-1.71,6.35C280.58,1069.51,294.79,1064.43,301.58,1059.64Z" transform="translate(-50.39 -189.18)"/><path class="cls-6" d="M1007.93,1002c-1.45,2.69-5.62,1.92-7.25,1.81-18.5-1.34-37-2.65-55.47-4.31-48.22-4.38-94.11-19.67-140.9-30.57-22.86-5.33-45.07-13.46-67.57-20.33-47.5-14.51-95-28.93-142.49-43.59-19.48-6-34.15-11-53.55-17.34-1.44-.47-13.39-3.85-13.39-3.85s5-9.83,6.3-13.43c5.09,1.51,5.09,1.51,11.55,3.57,22.42,7.17,40.85,12.65,63.4,19.44C669.7,911.78,730.81,930.29,792,948.44c36.36,10.8,72.71,21.75,109.42,31.21,26.8,6.91,46.35,10.25,73.67,14.88,8.92,1.51,20.66,3.32,27.14,4.1C1003.53,998.8,1007.93,999.24,1007.93,1002Z" transform="translate(-50.39 -189.18)"/><path class="cls-5" d="M249.09,981.59c.77-52.21,45.52-66.7,77.9-54.78,17.65,6.51,36.83,38,27.35,66.16-13.72,40.73-64.43,48.87-92.88,23.69C250,1006.52,250.13,992,249.09,981.59Zm8.62-2c.3,24.93,18.63,42.75,43.65,42.41,24-.31,46.39-21.52,45.56-44.1-1-26.14-14.21-47.27-40.95-46.5C278.24,932.16,257.38,952.45,257.71,979.55Z" transform="translate(-50.39 -189.18)"/><path class="cls-5" d="M331.5,965.55c7.81-.26,9.49,3.92,9,9.93A37.54,37.54,0,0,1,338,986.91c-1.51,3.55-4.33,9.3-6.45,9.24-4.16-.11-8.3-3.45-12.28-5.75A3.91,3.91,0,0,1,318,987c1.53-6.28,3.8-12.36,5.4-18.54C324.16,965.5,327.93,965.66,331.5,965.55Zm4,13.06c.31-1.37,1.05-7.37.07-8.17-1.75-1.44-2.59-1.5-4.58-1.15s-3.41,1-4.14,2.82a45.23,45.23,0,0,0-2.6,10.67c-.55,4-.87,3.25.34,5.14,1.7,1.13,6.78,3.57,8.09.47A53.29,53.29,0,0,0,335.45,978.61Z" transform="translate(-50.39 -189.18)"/></g><g id="jWJmVV"><path class="cls-5" d="M1319.89,1110.1l.81-298.75c0-66.91,1.36-140.12,1.34-207,0-69.21,3.56-132.16-4.54-201.32-4.49-38.32-11.13-75.81-30.08-109.94-15-27-34.66-49.91-60.64-67-36.63-24-77.1-34.67-120.76-34.94-62.12-.39-124.26-2-186.38-2q-235.26.12-470.53,1.29c-25.91.1-52.27.16-78.17,0-39.92-.27-71.84-.45-107.87,5.84-32.3,5.62-60.12,18.93-84.2,40.93-40.32,36.83-57.19,84.37-61,137-2.8,38.42-3.82,77.05-3.68,115.59.49,135.42,1.94,270.84,2.78,406.27.22,36.21-.6,72.43-.67,108.65-.06,29.6.28,59.18.47,88.77l.25,15.41,29-3.16c-.82-85.41-2-552.16-.84-642.76,1-77.53,13.16-191.13,90.41-225.13,49.47-21.78,81.8-23.25,161.63-24.24,220.18-2.73,542.61-1.87,542.61-1.87,52.46.33,187.37,1.9,221.67,13.41,41.23,13.84,84.94,34.4,109.54,103,36.53,101.89,23.82,319.32,23,506-.24,51.59-1.22,202.35-1.59,270.28Z" transform="translate(-50.39 -189.18)"/></g></svg>