<svg width="60" height="60" viewBox="0 0 60 60" fill="#5F13EF" xmlns="http://www.w3.org/2000/svg">
<path d="M59.9338 44.8477L58.8205 39.1953C58.3713 36.9219 57.2698 34.8555 55.6291 33.2188L53.6721 31.2656V24.6133C54.8948 24.1289 55.7619 22.9375 55.7619 21.543C55.7619 21.168 55.6994 20.8047 55.5823 20.4688C56.969 20.0781 57.9885 18.8008 57.9885 17.2891C57.9885 16.8906 57.9182 16.5078 57.7854 16.1563C59.0744 15.7031 60.0002 14.4766 60.0002 13.0391C60.0002 11.6016 59.0744 10.375 57.7854 9.92188C57.9182 9.57032 57.9885 9.18751 57.9885 8.78907C57.9885 6.96876 56.508 5.48438 54.6877 5.48438H48.0705C48.676 4.75391 48.969 3.76954 48.7932 2.76954C48.6369 1.87501 48.1369 1.10157 47.3869 0.585945C46.6408 0.0742253 45.7385 -0.109368 44.8479 0.0625065L39.1916 1.17969C36.9221 1.62891 34.8557 2.73048 33.219 4.3711L31.2658 6.32813H24.6135C24.1291 5.10548 22.9377 4.23829 21.5432 4.23829C21.1682 4.23829 20.8049 4.30079 20.469 4.41798C20.0783 3.03126 18.801 2.01173 17.2893 2.01173C16.8908 2.01173 16.508 2.08204 16.1565 2.21485C15.7033 0.925787 14.4768 6.52678e-06 13.0393 6.52678e-06C11.6018 6.52678e-06 10.3752 0.925787 9.9221 2.21485C9.57053 2.08204 9.18772 2.01173 8.78928 2.01173C6.96897 2.01173 5.4846 3.49219 5.4846 5.31251V11.9297C4.75413 11.3242 3.76975 11.0313 2.76975 11.207C1.87522 11.3633 1.10178 11.8633 0.586158 12.6133C0.0744389 13.3594 -0.109155 14.2617 0.0627201 15.1524L1.17991 20.8086C1.62913 23.0781 2.73069 25.1445 4.37131 26.7813L6.32835 28.7344V35.3867C5.10569 35.8711 4.2385 37.0625 4.2385 38.457C4.2385 38.8359 4.301 39.1953 4.41819 39.5313C3.03147 39.9258 2.01194 41.1992 2.01194 42.7109C2.01194 43.1094 2.08225 43.4922 2.21506 43.8438C0.926001 44.2969 0.00022015 45.5234 0.00022015 46.9609C0.00022015 48.3984 0.926001 49.625 2.21506 50.0781C2.08225 50.4297 2.01194 50.8125 2.01194 51.2109C2.01194 53.0313 3.49241 54.5156 5.31272 54.5156H11.9299C11.3244 55.2461 11.0315 56.2305 11.2073 57.2305C11.3635 58.125 11.8635 58.8984 12.6135 59.4141C13.176 59.8008 13.8283 60 14.4963 60C14.7151 60 14.9338 59.9805 15.1526 59.9375L20.8088 58.8203C23.0783 58.3711 25.1448 57.2695 26.7815 55.6289L28.7346 53.6719H35.3869C35.8713 54.8945 37.0627 55.7617 38.4573 55.7617C38.8323 55.7617 39.1955 55.6992 39.5315 55.582C39.926 56.9688 41.1994 57.9883 42.7112 57.9883C43.1096 57.9883 43.4924 57.918 43.844 57.7852C44.2971 59.0742 45.5237 60 46.9612 60C48.3987 60 49.6252 59.0742 50.0783 57.7852C50.4299 57.918 50.8127 57.9883 51.2112 57.9883C53.0315 57.9883 54.5158 56.5078 54.5158 54.6875V48.0703C55.2463 48.6758 56.2307 48.9688 57.2307 48.793C58.1252 48.6367 58.8987 48.1367 59.4143 47.3906C59.926 46.6406 60.1096 45.7383 59.9338 44.8477ZM24.844 15.4492V8.67188H31.7541C32.0666 8.67188 32.3635 8.55079 32.5823 8.32813L34.8791 6.02735C36.1838 4.71876 37.8323 3.83594 39.6487 3.48048L45.301 2.36329C45.5705 2.31251 45.8401 2.36719 46.0627 2.51954C46.2893 2.67579 46.4377 2.90626 46.4846 3.17579C46.5783 3.69532 46.2463 4.19923 45.7346 4.32423L43.3869 4.90235C42.6448 5.08204 42.1721 5.76563 42.2658 6.52344C42.3557 7.28126 42.9768 7.83204 43.7385 7.83204H54.6877C55.2151 7.83204 55.6448 8.26173 55.6448 8.78907C55.6448 9.27735 55.2776 9.6797 54.801 9.73829L48.3166 9.7461C47.6682 9.7461 47.1448 10.2695 47.1448 10.918C47.1448 11.5664 47.6682 12.0899 48.3166 12.0899L56.6994 12.082C57.2268 12.082 57.6565 12.5117 57.6565 13.0391C57.6565 13.5664 57.2268 13.9961 56.6994 13.9961H48.3166C47.6682 13.9961 47.1448 14.5234 47.1448 15.168C47.1448 15.8164 47.6682 16.3398 48.3166 16.3398H54.801C55.2776 16.3984 55.6448 16.8008 55.6448 17.293C55.6448 17.8203 55.2151 18.25 54.6877 18.25H48.3166C47.6682 18.25 47.1448 18.7734 47.1448 19.4219C47.1448 20.0703 47.6682 20.5938 48.3166 20.5938H52.5744C53.051 20.6484 53.4182 21.0547 53.4182 21.543C53.4182 22.0703 52.9885 22.5 52.4612 22.5H40.6291C38.1487 22.5 35.8205 21.5352 34.0666 19.7773L32.5862 18.2891C32.3635 18.0703 32.0666 17.9453 31.7541 17.9453H24.844V15.4492ZM6.02756 25.1211C4.71897 23.8164 3.83616 22.168 3.48069 20.3516L2.3635 14.6992C2.31272 14.4336 2.36741 14.1602 2.51975 13.9375C2.676 13.7109 2.90647 13.5625 3.176 13.5156C3.69553 13.4219 4.19944 13.7539 4.32444 14.2656L4.90256 16.6133C5.08225 17.3555 5.76585 17.8281 6.52366 17.7383C7.28147 17.6445 7.82835 17.0234 7.82835 16.2617V5.31251C7.82835 4.78516 8.25803 4.35548 8.78928 4.35548C9.27756 4.35548 9.67991 4.72657 9.7385 5.19923L9.74631 11.6836C9.74631 12.332 10.2698 12.8555 10.9182 12.8555C11.5627 12.8555 12.0901 12.332 12.0901 11.6836V5.31251C12.0901 5.24219 12.0862 5.17188 12.0823 5.10157V3.30079C12.0823 2.77344 12.5119 2.34376 13.0393 2.34376C13.5666 2.34376 13.9963 2.77344 13.9963 3.30079V5.10157C13.9924 5.17188 13.9885 5.24219 13.9885 5.31251L13.9963 11.6836C13.9963 12.332 14.5237 12.8555 15.1682 12.8555C15.8166 12.8555 16.3401 12.332 16.3401 11.6836V5.19923C16.3987 4.72657 16.801 4.35548 17.2932 4.35548C17.8205 4.35548 18.2502 4.78516 18.2502 5.31251C18.2502 5.31251 18.2463 11.0156 18.2502 11.0586V11.6836C18.2502 12.332 18.7737 12.8555 19.4221 12.8555C20.0666 12.8555 20.594 12.332 20.594 11.6836V7.42579C20.6487 6.94923 21.0549 6.58204 21.5432 6.58204C22.0705 6.58204 22.5002 7.01173 22.5002 7.53907V19.375C22.5002 21.8164 21.508 24.207 19.7776 25.9336L18.2893 27.418C18.0705 27.6367 17.9455 27.9336 17.9455 28.2461V35.1563H15.6018V32.043C15.6018 31.3984 15.0783 30.8711 14.4299 30.8711C13.7854 30.8711 13.258 31.3984 13.258 32.043V35.1563H8.6721V28.2461C8.6721 27.9336 8.551 27.6367 8.32835 27.418L6.02756 25.1211ZM35.1565 51.3281H28.2463C27.9338 51.3281 27.6369 51.4492 27.4182 51.6719L25.1213 53.9727C23.8166 55.2813 22.1682 56.1641 20.3518 56.5195L14.6994 57.6367C14.4299 57.6875 14.1604 57.6328 13.9377 57.4805C13.7112 57.3242 13.5627 57.0938 13.5158 56.8242C13.4221 56.3047 13.7541 55.8008 14.2658 55.6758L16.6135 55.0977C17.3557 54.918 17.8283 54.2344 17.7346 53.4766C17.6448 52.7188 17.0237 52.168 16.2619 52.168H5.31272C4.78538 52.168 4.35569 51.7422 4.35569 51.2109C4.35569 50.7227 4.72678 50.3203 5.19944 50.2617L11.6838 50.2539C12.3323 50.2539 12.8557 49.7305 12.8557 49.082C12.8557 48.4336 12.3323 47.9102 11.6838 47.9102L3.301 47.918C2.77366 47.918 2.34397 47.4883 2.34397 46.9609C2.34397 46.4336 2.77366 46.0039 3.301 46.0039H11.6838C12.3323 46.0039 12.8557 45.4766 12.8557 44.832C12.8557 44.1836 12.3323 43.6602 11.6838 43.6602H5.19944C4.72678 43.6016 4.35569 43.1992 4.35569 42.707C4.35569 42.1797 4.78538 41.75 5.31272 41.75H11.6838C12.3323 41.75 12.8557 41.2266 12.8557 40.5781C12.8557 39.9336 12.3323 39.4063 11.6838 39.4063H7.426C6.94944 39.3516 6.58225 38.9453 6.58225 38.457C6.58225 37.9297 7.01194 37.5 7.53928 37.5H19.3752C21.8518 37.5 24.1838 38.4649 25.9338 40.2227L27.4182 41.7109C27.6369 41.9297 27.9338 42.0547 28.2463 42.0547H35.1565V51.3281ZM35.1916 39.7109H28.7307L27.594 38.5664C25.6174 36.5859 23.051 35.4063 20.2893 35.1914V28.7305L21.4338 27.5938C23.383 25.6445 24.5862 23.0273 24.8049 20.2891H31.2698L32.4065 21.4336C34.383 23.4141 36.9494 24.5938 39.7112 24.8086V31.2695L38.5666 32.4063C36.5862 34.3828 35.4065 36.9492 35.1916 39.7109ZM57.4807 46.0625C57.3244 46.2891 57.094 46.4375 56.8244 46.4844C56.3049 46.5781 55.801 46.2461 55.676 45.7344L55.0979 43.3867C54.9182 42.6445 54.2346 42.1719 53.4768 42.2656C52.719 42.3555 52.1682 42.9766 52.1682 43.7383V54.6875C52.1682 55.2149 51.7424 55.6445 51.2112 55.6445C50.7229 55.6445 50.3205 55.2734 50.2619 54.8008L50.2541 48.3164C50.2541 47.668 49.7307 47.1445 49.0823 47.1445C48.4377 47.1445 47.9104 47.668 47.9104 48.3164L47.9182 56.6992C47.9182 57.2266 47.4885 57.6563 46.9612 57.6563C46.4338 57.6563 46.0041 57.2266 46.0041 56.6992V48.3164C46.0041 47.668 45.4768 47.1445 44.8323 47.1445C44.1838 47.1445 43.6604 47.668 43.6604 48.3164V54.8008C43.6018 55.2734 43.1994 55.6445 42.7073 55.6445C42.1799 55.6445 41.7502 55.2149 41.7502 54.6875V48.3164C41.7502 47.668 41.2268 47.1445 40.5783 47.1445C39.9338 47.1445 39.4065 47.668 39.4065 48.3164V52.5781C39.3518 53.0508 38.9455 53.418 38.4573 53.418C37.9299 53.418 37.5002 52.9883 37.5002 52.4609V40.6289C37.5002 38.1484 38.4651 35.8203 40.2229 34.0664L41.7112 32.582C41.9299 32.3633 42.0549 32.0664 42.0549 31.7539V24.8438H46.5744V28.3984C46.5744 29.0469 47.0979 29.5703 47.7463 29.5703C48.3948 29.5703 48.9182 29.0469 48.9182 28.3984V24.8438H51.3283V31.7539C51.3283 32.0664 51.4494 32.3633 51.6721 32.582L53.9729 34.8789C55.2815 36.1836 56.1643 37.832 56.5198 39.6484L57.6369 45.3008C57.6877 45.5703 57.633 45.8399 57.4807 46.0625Z" />
<path d="M48.5742 31.9766C48.3555 31.7617 48.0547 31.6328 47.7461 31.6328C47.4375 31.6328 47.1367 31.7617 46.918 31.9766C46.6992 32.1953 46.5742 32.5 46.5742 32.8086C46.5742 33.1172 46.6992 33.418 46.918 33.6367C47.1367 33.8555 47.4375 33.9766 47.7461 33.9766C48.0547 33.9766 48.3555 33.8555 48.5742 33.6367C48.793 33.418 48.918 33.1172 48.918 32.8086C48.918 32.5 48.793 32.1953 48.5742 31.9766Z" />
<path d="M15.2578 26.8086C15.0391 26.5898 14.7383 26.4648 14.4297 26.4648C14.1211 26.4648 13.8203 26.5898 13.6016 26.8086C13.3828 27.0273 13.2578 27.3281 13.2578 27.6367C13.2578 27.9453 13.3828 28.2461 13.6016 28.4648C13.8203 28.6836 14.1211 28.8086 14.4297 28.8086C14.7383 28.8086 15.0391 28.6836 15.2578 28.4648C15.4766 28.2461 15.6016 27.9453 15.6016 27.6367C15.6016 27.3281 15.4766 27.0273 15.2578 26.8086Z" />
</svg>
