<svg width="60" height="60" viewBox="0 0 60 60" fill="#5F13EF" xmlns="http://www.w3.org/2000/svg">
<path d="M59.9883 35.918C59.9883 27.9531 56.707 17.5391 47.5742 13.8008V9.80859L50.2891 7.63672C50.5352 7.44141 50.6797 7.14453 50.6797 6.83203V1.03906C50.6797 0.46875 50.2148 0.00390625 49.6445 0.00390625H46.543C46.2656 0.00390625 46.0039 0.113281 45.8125 0.308594L44.4727 1.64453L43.1367 0.308594C42.9414 0.113281 42.6797 0.00390625 42.4062 0.00390625H38.2695C37.9922 0.00390625 37.7305 0.113281 37.5352 0.308594L36.1992 1.64453L34.8633 0.308594C34.668 0.113281 34.4062 0.00390625 34.1289 0.00390625H31.0273C30.457 0.00390625 29.9922 0.46875 29.9922 1.03906V6.83203C29.9922 7.14453 30.1367 7.44141 30.3828 7.63672L33.0977 9.80859V13.8008C23.9648 17.5391 20.6836 27.957 20.6836 35.918C20.6641 37.7852 20.957 39.6406 21.543 41.4141C21.0977 41.3906 20.6523 41.375 20.2031 41.375H17.582C17.582 40.8047 17.1211 40.3398 16.5469 40.3398H8.27344C7.70313 40.3398 7.23828 40.8047 7.23828 41.375H0V43.4453H7.23828V53.7852H0V55.8555H7.23828C7.23828 56.4258 7.70313 56.8906 8.27344 56.8906H16.5469C17.1211 56.8906 17.582 56.4258 17.582 55.8555V55.4609L25.3047 58.668C29.5156 60.3867 34.2188 60.4375 38.4648 58.8125L54.4453 52.7188C55.3906 52.3594 56.1523 51.6328 56.5547 50.707C57.1797 49.3203 56.9141 47.6953 55.8867 46.5781C58.6719 43.7461 60.1562 39.8867 59.9883 35.918ZM15.5156 54.8203H9.30859V42.4102H15.5156V54.8203ZM32.0625 6.33594V2.07422H33.7031L35.4688 3.83984C35.8711 4.24219 36.5273 4.24219 36.9297 3.83984L38.6953 2.07422H41.9766L43.7422 3.83984C44.1445 4.24219 44.8008 4.24219 45.2031 3.83984L46.9688 2.07422H48.6094V6.33594L46.1797 8.27734H34.4922L32.0625 6.33594ZM45.5078 10.3477V13.4492H35.1641V10.3477H45.5078ZM54.6602 49.8711C54.4766 50.293 54.1328 50.625 53.7031 50.7891L37.7266 56.8828C33.9688 58.3203 29.8086 58.2734 26.0859 56.7578L17.582 53.2188V43.4453H20.2031C23.6328 43.4492 27.0156 44.2461 30.0859 45.7773C31.0977 46.2812 32.2148 46.5469 33.3477 46.5469H41.3711C42.2266 46.5508 42.918 47.25 42.9102 48.1094C42.9062 48.8242 42.4102 49.4453 41.7109 49.6094C41.5781 49.6211 41.4453 49.6484 41.3047 49.6484H28.9609V51.7188H41.3047C41.3281 51.7188 41.3477 51.7188 41.3711 51.7188C41.3906 51.7188 41.4102 51.7109 41.4336 51.7109C42.2539 51.6992 43.0625 51.5273 43.8203 51.207L52.4688 47.5352C52.8789 47.3594 53.3438 47.3594 53.7578 47.5352C54.1836 47.7148 54.5195 48.0625 54.6875 48.5C54.8633 48.9414 54.8516 49.4375 54.6602 49.8711ZM54.043 45.4648C53.2539 45.2539 52.4141 45.3125 51.6602 45.6328L44.9531 48.4766C44.9727 48.3516 44.9844 48.2266 44.9922 48.0977C44.9922 46.0977 43.3711 44.4766 41.3711 44.4766H33.3477C32.5352 44.4766 31.7344 44.2891 31.0078 43.9258C28.7656 42.8086 26.3594 42.0469 23.8828 41.668C23.1094 39.8516 22.7266 37.8906 22.7539 35.918C22.7539 28.4688 25.7969 18.6953 34.3359 15.5195H46.3359C54.875 18.6953 57.918 28.4688 57.918 35.918C58.0938 39.5156 56.6758 43.0078 54.043 45.4648Z" />
<path d="M11.375 50.6836H13.4453V52.7539H11.375V50.6836Z" />
<path d="M42.5312 29.6406L38.793 28.3945C38.3906 28.2617 38.1719 27.8281 38.3047 27.4258C38.4062 27.1094 38.7031 26.8945 39.0352 26.8945H41.6367C42.0625 26.8945 42.4062 27.2422 42.4062 27.6641V28.3438H44.4727V27.6641C44.4727 26.0977 43.2031 24.8281 41.6367 24.8281H41.3711V22.7578H39.3008V24.8281H39.0352C37.4688 24.8242 36.1992 26.0938 36.1953 27.6602C36.1953 28.8828 36.9805 29.9688 38.1406 30.3555L41.8789 31.6016C42.2812 31.7344 42.5 32.168 42.3672 32.5703C42.2656 32.8867 41.9688 33.1016 41.6367 33.1016H39.0352C38.6133 33.1016 38.2695 32.7578 38.2695 32.332V31.6523H36.1992V32.332C36.1992 33.8984 37.4688 35.168 39.0352 35.168H39.3008V37.2383H41.3711V35.168H41.6367C43.2031 35.1719 44.4727 33.9023 44.4766 32.3359C44.4766 31.1133 43.6914 30.0273 42.5312 29.6406Z" />
<path d="M40.3359 18.6211C34.0547 18.6211 28.9609 23.7148 28.9609 30C28.9648 36.2773 34.0547 41.3672 40.3359 41.375C46.6211 41.375 51.7148 36.2812 51.7148 30C51.7148 23.7148 46.6211 18.6211 40.3359 18.6211ZM40.3359 39.3047C35.1953 39.3047 31.0273 35.1406 31.0273 30C31.0352 24.8594 35.1992 20.6953 40.3359 20.6914C45.4766 20.6914 49.6445 24.8555 49.6445 30C49.6445 35.1406 45.4766 39.3047 40.3359 39.3047Z" />
</svg>
