<svg width="60" height="60" viewBox="0 0 60 60" fill="#5F13EF" xmlns="http://www.w3.org/2000/svg">
<path d="M52.5 13.125V5.625H0V46.875C0 46.875 0 54.375 7.5 54.375H54.375C54.375 54.375 60 54.2578 60 46.875V13.125H52.5ZM7.5 50.625C3.75 50.625 3.75 46.875 3.75 46.875V9.375H48.75V46.875C48.75 48.6016 49.2812 49.7969 50.0156 50.625H7.5Z" />
<path d="M7.5 16.875H45V20.625H7.5V16.875Z" />
<path d="M28.125 39.375H41.25V43.125H28.125V39.375Z" />
<path d="M28.125 31.875H45V35.625H28.125V31.875Z" />
<path d="M28.125 24.375H45V28.125H28.125V24.375Z" />
<path d="M7.5 24.375H24.375V43.125H7.5V24.375Z" />
</svg>
