<svg width="60" height="60" viewBox="0 0 60 60" fill="none" xmlns="http://www.w3.org/2000/svg">
<path d="M51.25 22.5H47.5V17.5C47.5 7.85039 39.6497 0 30 0C20.3503 0 12.5 7.85039 12.5 17.5V22.5H8.75004C8.0591 22.5 7.5 23.0591 7.5 23.75V55.0001C7.5 57.7576 9.74238 60 12.5 60H47.5001C50.2576 60 52.5 57.7576 52.5 55V23.75C52.5 23.0591 51.9409 22.5 51.25 22.5ZM33.7427 48.6121C33.7818 48.9648 33.6683 49.3188 33.4315 49.5838C33.1947 49.8486 32.8553 50 32.5001 50H27.5C27.1448 50 26.8055 49.8486 26.5686 49.5838C26.3318 49.3189 26.2182 48.9649 26.2574 48.6121L27.0459 41.5211C25.7654 40.5896 25.0001 39.1162 25.0001 37.5C25.0001 34.7425 27.2425 32.5 30.0001 32.5C32.7578 32.5 35.0002 34.7423 35.0002 37.5C35.0002 39.1162 34.2348 40.5896 32.9543 41.5211L33.7427 48.6121ZM40 22.5H20V17.5C20 11.9861 24.4861 7.5 30 7.5C35.5139 7.5 40 11.9861 40 17.5V22.5Z" fill="white"/>
</svg>
