<svg width="60" height="60" viewBox="0 0 60 60" fill="none" xmlns="http://www.w3.org/2000/svg">
<path fill-rule="evenodd" clip-rule="evenodd" d="M35.5952 38.1223L51.5778 15.8671C52.5203 14.5638 54.0162 15.4864 54.0162 17.3276V26.8933C54.0162 29.1772 55.4703 33.0995 57.1218 33.0995H57.065C58.7195 33.0995 60 29.1772 60 26.8933V6.20615C60 1.63429 57.5466 0 54.2436 0H39.2842C37.6326 0 36.0649 0.819211 36.0649 3.10307V3.62025C36.0649 5.90411 37.6326 8.27486 39.2842 8.27486H46.5993C47.9337 8.27486 48.6009 9.47058 47.6585 10.7739L33.4829 29.8557C32.3161 31.4734 30.4222 31.2128 29.2524 29.5992L28.0197 27.7622C25.683 24.5308 21.8953 24.4688 19.5557 27.7001L0.715746 52.9633C-0.454082 54.5769 0.162247 57.1793 0.162247 58.797V58.7888C3.15413 60.4065 3.77645 60.4024 4.94628 58.7846L21.3957 36.4177C22.5655 34.7999 24.597 34.7999 25.7668 36.4177L27.0593 38.114C29.393 41.3536 33.2555 41.3578 35.5952 38.1223Z" fill="white"/>
</svg>
