<svg width="60" height="60" viewBox="0 0 60 60" fill="#5F13EF" xmlns="http://www.w3.org/2000/svg">
<path d="M55.8164 14.8203H40.875V12.2109C40.875 9.5625 38.7227 7.41016 36.0742 7.41016H23.9258C21.2773 7.41016 19.125 9.5625 19.125 12.2109V14.8203H4.18359C1.87891 14.8203 0 16.6953 0 19.0039V48.4062C0 50.7109 1.87891 52.5898 4.18359 52.5898H55.8164C58.1211 52.5898 60 50.7109 60 48.4062V19.0039C60 16.6953 58.1211 14.8203 55.8164 14.8203ZM21.5156 12.2109C21.5156 10.8828 22.5938 9.80078 23.9258 9.80078H36.0742C37.4062 9.80078 38.4844 10.8828 38.4844 12.2109V14.8203H21.5156V12.2109ZM57.6094 48.4062C57.6094 49.3945 56.8047 50.1992 55.8164 50.1992H4.18359C3.19531 50.1992 2.39062 49.3945 2.39062 48.4062V25.3398L20.7422 34.2422C21.1133 36.5117 23.0859 38.2461 25.457 38.2461H34.543C36.9141 38.2461 38.8867 36.5117 39.2578 34.2422L50.7227 28.6836C51.3164 28.3945 51.5625 27.6797 51.2734 27.0859C50.9883 26.4922 50.2734 26.2422 49.6758 26.5312L38.9883 31.7148C38.2891 29.9414 36.5586 28.6836 34.543 28.6836H25.457C23.4414 28.6836 21.7109 29.9453 21.0117 31.7148L2.39062 22.6836V19.0039C2.39062 18.0156 3.19531 17.2109 4.18359 17.2109H55.8164C56.8047 17.2109 57.6094 18.0156 57.6094 19.0039V48.4062ZM23.0664 33.4648C23.0664 32.1484 24.1406 31.0742 25.457 31.0742H34.543C35.8594 31.0742 36.9336 32.1484 36.9336 33.4648C36.9336 34.7852 35.8594 35.8555 34.543 35.8555H25.457C24.1406 35.8555 23.0664 34.7852 23.0664 33.4648Z" />
<path d="M55.9531 24.8164C55.664 24.2227 54.9492 23.9766 54.3554 24.2617L53.6211 24.6172C53.0273 24.9062 52.7812 25.6211 53.0664 26.2148C53.2734 26.6406 53.6992 26.8906 54.1445 26.8906C54.3203 26.8906 54.4961 26.8516 54.664 26.7695L55.3984 26.4141C55.9922 26.125 56.2382 25.4102 55.9531 24.8164Z" />
</svg>
