<svg width="60" height="60" viewBox="0 0 60 60" fill="#5F13EF" xmlns="http://www.w3.org/2000/svg">
<path d="M29.7891 35.7539C33.0781 35.7539 35.7578 33.082 35.7578 29.793C35.7578 28.4922 35.332 27.293 34.6289 26.3164C33.543 24.8125 31.7813 23.8281 29.793 23.8281C27.8047 23.8281 26.043 24.8125 24.957 26.3125C24.25 27.293 23.8281 28.4922 23.8281 29.7891C23.8242 33.0781 26.5039 35.7539 29.7891 35.7539Z" />
<path d="M42.8125 22.4961V16.7539H42.0664L37.0703 16.7695L37.0898 22.5156L42.8125 22.4961Z" />
<path d="M29.793 0C13.3633 0 0 13.3633 0 29.793C0 46.2188 13.3633 59.582 29.793 59.582C46.2188 59.582 59.582 46.2188 59.582 29.793C59.582 13.3633 46.2188 0 29.793 0ZM46.7344 26.3164V40.1875C46.7344 43.8008 43.7969 46.7383 40.1875 46.7383H19.3984C15.7852 46.7383 12.8477 43.8008 12.8477 40.1875V19.3984C12.8477 15.7852 15.7852 12.8477 19.3984 12.8477H40.1836C43.7969 12.8477 46.7344 15.7852 46.7344 19.3984V26.3164Z" />
<path d="M39.0586 29.793C39.0586 34.8984 34.9023 39.0586 29.793 39.0586C24.6797 39.0586 20.5234 34.8984 20.5234 29.793C20.5234 28.5625 20.7695 27.3867 21.207 26.3164H16.1484V40.1875C16.1484 41.9805 17.6055 43.4297 19.3945 43.4297H40.1836C41.9727 43.4297 43.4297 41.9805 43.4297 40.1875V26.3164H38.3711C38.8086 27.3867 39.0586 28.5625 39.0586 29.793Z" />
</svg>
