<svg width="60" height="60" viewBox="0 0 60 60" fill="#5F13EF" xmlns="http://www.w3.org/2000/svg">
<path d="M29.457 50.7188C29.2383 50.5 28.9375 50.375 28.6289 50.375C28.3203 50.375 28.0195 50.5 27.8008 50.7188C27.582 50.9336 27.457 51.2383 27.457 51.5469C27.457 51.8555 27.582 52.1562 27.8008 52.375C28.0195 52.5938 28.3203 52.7188 28.6289 52.7188C28.9375 52.7188 29.2383 52.5938 29.457 52.375C29.6758 52.1562 29.8008 51.8555 29.8008 51.5469C29.8008 51.2383 29.6758 50.9336 29.457 50.7188Z" />
<path d="M35.0352 39.9063V31.2852C35.0352 30.8945 34.8438 30.5313 34.5195 30.3125C34.1992 30.0938 33.7891 30.0508 33.4258 30.1953L13.2344 38.3281H6.73047C3.01953 38.3281 0 41.3477 0 45.0586C0 48.7695 3.01953 51.7891 6.73047 51.7891H7.50391V58.8281C7.50391 59.4766 8.03125 60 8.67578 60H13.4609C14.1094 60 14.6328 59.4766 14.6328 58.8281V52.3555L33.4297 59.9141C33.5703 59.9727 33.7188 60 33.8633 60C34.0938 60 34.3242 59.9336 34.5195 59.8008C34.8438 59.582 35.0352 59.2188 35.0352 58.8281V50.207C37.3867 49.6719 39.1484 47.5664 39.1484 45.0547C39.1484 42.5469 37.3867 40.4414 35.0352 39.9063ZM12.2891 57.6563H9.84766V51.7891H12.2891V57.6563ZM12.2891 49.4453H6.73047C4.3125 49.4453 2.34375 47.4805 2.34375 45.0586C2.34375 42.6406 4.3125 40.6719 6.73047 40.6719H12.2891V49.4453ZM32.6953 57.0938H32.6914L14.6328 49.8281V40.293L27.457 35.1289V46.7578C27.457 47.4063 27.9805 47.9297 28.6289 47.9297C29.2773 47.9297 29.8008 47.4063 29.8008 46.7578V34.1836L32.6953 33.0195V57.0938ZM35.0352 47.75V42.3633C36.0742 42.8164 36.8047 43.8516 36.8047 45.0547C36.8047 46.2578 36.0742 47.2969 35.0352 47.75Z" />
<path d="M50.3281 43.918H43.6914C43.043 43.918 42.5195 44.4453 42.5195 45.0898C42.5195 45.7383 43.043 46.2617 43.6914 46.2617H50.3281C50.9727 46.2617 51.5 45.7383 51.5 45.0898C51.5 44.4453 50.9727 43.918 50.3281 43.918Z" />
<path d="M44.8867 35.332C44.4258 34.875 43.6836 34.875 43.2266 35.332L40.9375 37.6211C40.4805 38.0781 40.4805 38.8203 40.9375 39.2773C41.168 39.5078 41.4688 39.6211 41.7695 39.6211C42.0664 39.6211 42.3672 39.5078 42.5977 39.2773L44.8867 36.9883C45.3438 36.5312 45.3438 35.7891 44.8867 35.332Z" />
<path d="M44.9727 53.082L42.6055 50.7187C42.1484 50.2617 41.4062 50.2617 40.9492 50.7187C40.4922 51.1758 40.4922 51.918 40.9492 52.375L43.3125 54.7422C43.543 54.9687 43.8437 55.082 44.1406 55.082C44.4414 55.082 44.7422 54.9687 44.9727 54.7422C45.4297 54.2812 45.4297 53.5391 44.9727 53.082Z" />
<path d="M55.3125 0H33.5156C30.9297 0 28.8281 2.10156 28.8281 4.6875V5.15625H9.14062C7.58984 5.15625 6.32812 6.41797 6.32812 7.96875V26.4844C6.32812 28.0352 7.58984 29.2969 9.14062 29.2969H10.3516V32.8906C10.3516 33.3633 10.6367 33.793 11.0742 33.9727C11.2187 34.0352 11.3711 34.0625 11.5234 34.0625C11.8281 34.0625 12.1289 33.9453 12.3516 33.7188L16.7734 29.2969H40.0508C41.6016 29.2969 42.8633 28.0352 42.8633 26.4844V22.9688H55.3125C57.8984 22.9688 60 20.8672 60 18.2812V4.6875C60 2.10156 57.8984 0 55.3125 0ZM40.5195 26.4844C40.5195 26.7422 40.3125 26.9531 40.0508 26.9531H16.2891C15.9766 26.9531 15.6797 27.0781 15.4609 27.2969L12.6953 30.0625V28.125C12.6953 27.4766 12.1719 26.9531 11.5234 26.9531H9.14062C8.88281 26.9531 8.67188 26.7422 8.67188 26.4844V7.96875C8.67188 7.71094 8.88281 7.5 9.14062 7.5H28.8281V18.2812C28.8281 20.8672 30.9297 22.9688 33.5156 22.9688H40.5195V26.4844ZM57.6562 18.2812C57.6562 19.5742 56.6055 20.625 55.3125 20.625H33.5156C32.2227 20.625 31.1719 19.5742 31.1719 18.2812V4.6875C31.1719 3.39453 32.2227 2.34375 33.5156 2.34375H55.3125C56.6055 2.34375 57.6562 3.39453 57.6562 4.6875V18.2812Z" />
<path d="M49.1211 10.4688L41.1016 5.83984C40.7383 5.62891 40.293 5.62891 39.9297 5.83984C39.5664 6.04688 39.3438 6.43359 39.3438 6.85547V16.1133C39.3438 16.5352 39.5664 16.9219 39.9297 17.1289C40.1094 17.2344 40.3125 17.2852 40.5156 17.2852C40.7188 17.2852 40.9219 17.2344 41.1016 17.1289L49.1211 12.5C49.4844 12.2891 49.707 11.9023 49.707 11.4844C49.707 11.0664 49.4844 10.6797 49.1211 10.4688ZM41.6875 14.0859V8.88281L46.1914 11.4844L41.6875 14.0859Z" />
<path d="M25.1367 12.3047H13.418C12.7734 12.3047 12.2461 12.8281 12.2461 13.4766C12.2461 14.125 12.7734 14.6484 13.418 14.6484H25.1367C25.7852 14.6484 26.3086 14.125 26.3086 13.4766C26.3086 12.8281 25.7852 12.3047 25.1367 12.3047Z" />
<path d="M25.9648 19.2109C25.75 18.9922 25.4453 18.8672 25.1367 18.8672C24.8281 18.8672 24.5273 18.9922 24.3086 19.2109C24.0898 19.4297 23.9648 19.7305 23.9648 20.0391C23.9648 20.3477 24.0898 20.6484 24.3086 20.8672C24.5273 21.0859 24.8281 21.2109 25.1367 21.2109C25.4492 21.2109 25.75 21.0859 25.9648 20.8672C26.1836 20.6484 26.3086 20.3477 26.3086 20.0391C26.3086 19.7305 26.1836 19.4297 25.9648 19.2109Z" />
<path d="M20.7422 18.8672H13.418C12.7734 18.8672 12.2461 19.3906 12.2461 20.0391C12.2461 20.6875 12.7734 21.2109 13.418 21.2109H20.7422C21.3906 21.2109 21.9141 20.6875 21.9141 20.0391C21.9141 19.3906 21.3906 18.8672 20.7422 18.8672Z" />
</svg>
