<svg width="60" height="60" viewBox="0 0 60 60" fill="#5F13EF" xmlns="http://www.w3.org/2000/svg">
<path d="M5.80469 19.3555H9.67578V21.2891H5.80469V19.3555Z" />
<path d="M57.0977 15.4844C58.6953 15.4844 60 14.1797 60 12.582V2.90234C60 1.30469 58.6953 0 57.0977 0H43.5469C41.9492 0 40.6445 1.30469 40.6445 2.90234V12.582C40.6445 14.1797 41.9492 15.4844 43.5469 15.4844H46.4531V17.418H44.5156V19.3555H49.3555V29.0312H45.3594C44.5898 28.2773 43.6367 27.7031 42.5742 27.3828C42.5781 27.2852 42.582 27.1914 42.582 27.0977C42.582 22.8281 39.1094 19.3555 34.8398 19.3555C32.1914 19.3555 29.7266 20.7344 28.3164 22.9375C27.3242 22.4922 26.25 22.2578 25.1602 22.2578C21.9492 22.2578 19.0586 24.2812 17.9258 27.25C17.1914 27.4102 16.5078 27.6914 15.8828 28.0664H8.71094V25.1602H12.582C14.1797 25.1602 15.4844 23.8594 15.4844 22.2578V2.90234C15.4844 1.30469 14.1797 0 12.582 0H2.90234C1.30469 0 0 1.30469 0 2.90234V22.2578C0 23.8594 1.30469 25.1602 2.90234 25.1602H6.77344V30H13.8242C13.4141 30.5859 13.0938 31.2344 12.8828 31.9336H8.71094V42.582H4.83984C3.23828 42.582 1.93359 43.8828 1.93359 45.4844V54.1953H0V57.0977C0 58.6953 1.30469 60 2.90234 60H18.3867C19.9883 60 21.2891 58.6953 21.2891 57.0977V54.1953H19.3555V45.4844C19.3555 43.8828 18.0508 42.582 16.4531 42.582H10.6445V33.8711H12.582C12.582 37.6055 15.6211 40.6445 19.3555 40.6445H40.6445C44.0508 40.6445 46.8711 38.1172 47.3438 34.8398H51.2891V42.582H44.5156V60H60V42.582H53.2266V32.9023H47.3398C47.2383 32.2227 47.0273 31.5742 46.7344 30.9688H51.2891V19.3555H56.1289V17.418H54.1953V15.4844H57.0977ZM13.5469 15.4844H1.93359V5.80469H13.5469V15.4844ZM2.90234 1.93359H12.582C13.1133 1.93359 13.5469 2.37109 13.5469 2.90234V3.87109H1.93359V2.90234C1.93359 2.37109 2.37109 1.93359 2.90234 1.93359ZM1.93359 22.2578V17.418H13.5469V22.2578C13.5469 22.793 13.1133 23.2266 12.582 23.2266H2.90234C2.37109 23.2266 1.93359 22.793 1.93359 22.2578ZM19.3555 57.0977C19.3555 57.6289 18.9219 58.0664 18.3867 58.0664H2.90234C2.37109 58.0664 1.93359 57.6289 1.93359 57.0977V56.1289H19.3555V57.0977ZM17.418 45.4844V54.1953H3.87109V45.4844C3.87109 44.9492 4.30469 44.5156 4.83984 44.5156H16.4531C16.9844 44.5156 17.418 44.9492 17.418 45.4844ZM46.4531 58.0664V52.2578H58.0664V58.0664H46.4531ZM58.0664 50.3242H46.4531V44.5156H58.0664V50.3242ZM40.6445 38.7109H19.3555C16.6875 38.7109 14.5156 36.5391 14.5156 33.8711C14.5156 31.4258 16.3477 29.3594 18.7734 29.0703L19.4102 28.9961L19.5898 28.3789C20.3047 25.9141 22.5977 24.1953 25.1602 24.1953C26.2305 24.1953 27.2773 24.4922 28.1992 25.0586L29.1211 25.6289L29.582 24.6445C30.5352 22.6055 32.5977 21.2891 34.8398 21.2891C38.043 21.2891 40.6445 23.8945 40.6445 27.0977C40.6445 27.3633 40.6211 27.6484 40.5703 27.9922L40.4219 28.9492L41.3789 29.0938C43.7188 29.4531 45.4844 31.5039 45.4844 33.8711C45.4844 36.5391 43.3125 38.7109 40.6445 38.7109ZM43.5469 1.93359H57.0977C57.6289 1.93359 58.0664 2.37109 58.0664 2.90234V9.67578H42.582V2.90234C42.582 2.37109 43.0156 1.93359 43.5469 1.93359ZM42.582 12.582V11.6133H58.0664V12.582C58.0664 13.1133 57.6289 13.5469 57.0977 13.5469H43.5469C43.0156 13.5469 42.582 13.1133 42.582 12.582ZM52.2578 17.418H48.3867V15.4844H52.2578V17.418Z" />
<path d="M48.3867 46.4531H50.3242V48.3867H48.3867V46.4531Z" />
<path d="M54.1953 54.1953H56.1289V56.1289H54.1953V54.1953Z" />
<path d="M52.2578 46.4531H56.1289V48.3867H52.2578V46.4531Z" />
<path d="M48.3867 54.1953H52.2578V56.1289H48.3867V54.1953Z" />
</svg>
