<svg width="60" height="60" viewBox="0 0 60 60" fill="#5F13EF" xmlns="http://www.w3.org/2000/svg">
<path fill-rule="evenodd" clip-rule="evenodd" d="M12.5 15.625C12.5 13.9 13.9 12.5 15.625 12.5C17.35 12.5 18.75 13.9 18.75 15.625C18.75 17.35 17.35 18.75 15.625 18.75C13.9 18.75 12.5 17.35 12.5 15.625ZM33.853 51.5833L6.70759 24.4397C6.41298 24.1451 6.25 23.7471 6.25 23.3303V9.38713C6.25 7.65403 7.65099 6.25 9.38421 6.25H23.3283C23.7452 6.25 24.1432 6.4161 24.4378 6.7107L51.5832 33.8543C52.8056 35.0797 52.8056 37.0635 51.5832 38.2857L38.2848 51.5833C37.0624 52.8056 35.0785 52.8056 33.853 51.5833ZM47.8016 21.2449C47.2821 20.7222 26.9522 0.394351 27.4748 0.913892C26.8864 0.328626 26.0915 0 25.2622 0H6.26234C2.80413 0 0 2.80114 0 6.25641V25.2604C0 26.0897 0.331738 26.8847 0.916974 27.4731L31.6121 58.1667C34.0564 60.6111 38.0184 60.6111 40.4627 58.1667C41.0197 57.6096 58.364 40.2676 58.1668 40.4616C60.6111 38.0173 60.6111 34.055 58.1668 31.6107L47.8016 21.2449Z" />
</svg>
