<svg width="60" height="60" viewBox="0 0 60 60" fill="#5F13EF" xmlns="http://www.w3.org/2000/svg">
<path fill-rule="evenodd" clip-rule="evenodd" d="M30 30.6383C23.3116 30.6383 17.8723 25.199 17.8723 18.5106C17.8723 11.8222 23.3116 6.38298 30 6.38298C36.6884 6.38298 42.1276 11.8222 42.1276 18.5106C42.1276 25.199 36.6884 30.6383 30 30.6383ZM41.274 32.019C45.372 28.722 48 23.67 48 18C48 8.058 39.942 0 30 0C20.058 0 12 8.058 12 18C12 23.67 14.628 28.722 18.726 32.019C7.749 36.144 0 46.335 0 60H6C6 45 16.767 36 30 36C43.233 36 54 45 54 60H60C60 46.335 52.251 36.144 41.274 32.019Z" />
</svg>
