<svg width="60" height="60" viewBox="0 0 60 60" fill="#5F13EF" xmlns="http://www.w3.org/2000/svg">
<path fill-rule="evenodd" clip-rule="evenodd" d="M60 14.2969V28.3594H52.8516V45.9375H54.7266C57.6343 45.9375 60 48.3032 60 51.2109V60H0V51.2109C0 48.3032 2.36572 45.9375 5.27344 45.9375H28.2422V28.3594H20.4222L16.9066 35.3906H10.5469V38.9062H7.03125V35.3906H0V12.5391C0 9.63135 2.36572 7.26562 5.27344 7.26562H7.03125V3.75H10.5469V7.26562H38.7891V3.51562H35.2734V0H45.8203V3.51562H42.3047V7.26562H47.5781C50.4858 7.26562 52.8516 9.63135 52.8516 12.5391V14.2969H60ZM56.4844 24.8438V17.8125H52.8516V24.8438H56.4844ZM56.4844 51.2109V56.4844H3.51562V51.2109C3.51562 50.2419 4.30435 49.4531 5.27344 49.4531H54.7266C55.6956 49.4531 56.4844 50.2419 56.4844 51.2109ZM31.7578 24.8438V45.9375H49.3359V12.5391C49.3359 11.57 48.5472 10.7812 47.5781 10.7812H5.27344C4.30435 10.7812 3.51562 11.57 3.51562 12.5391V31.875H14.734L18.2497 24.8438H31.7578Z" />
<path fill-rule="evenodd" clip-rule="evenodd" d="M36.7744 20.3226C36.7744 17.6546 38.9451 15.4839 41.6131 15.4839C44.2811 15.4839 46.4518 17.6546 46.4518 20.3226C46.4518 22.9906 44.2811 25.1613 41.6131 25.1613C38.9451 25.1613 36.7744 22.9906 36.7744 20.3226ZM39.9995 20.3226C39.9995 21.2118 40.7232 21.9355 41.6124 21.9355C42.5016 21.9355 43.2253 21.2118 43.2253 20.3226C43.2253 19.4334 42.5016 18.7097 41.6124 18.7097C40.7232 18.7097 39.9995 19.4334 39.9995 20.3226Z" />
<path d="M36.7744 29.0323H46.4518V32.9032H36.7744V29.0323Z" />
<path d="M36.7744 36.7742H46.4518V40.6452H36.7744V36.7742Z" />
</svg>
