<svg width="60" height="60" viewBox="0 0 60 60" fill="#5F13EF" xmlns="http://www.w3.org/2000/svg">
<path d="M2.10547 37.0117V11.4844C2.10547 10.0664 3.25391 8.91406 4.67188 8.91406H30.1875C31.6055 8.91406 32.7578 10.0664 32.7578 11.4844V37.0117C32.7578 37.4844 32.375 37.8672 31.9023 37.8672H2.96094C2.48828 37.8672 2.10547 37.4844 2.10547 37.0117ZM22.7109 45.7578C22.7109 48.6992 20.3242 51.0859 17.3828 51.0859C14.4414 51.0859 12.0547 48.6992 12.0547 45.7578C12.0547 42.8164 14.4414 40.4297 17.3828 40.4297C20.3242 40.4297 22.7109 42.8164 22.7109 45.7578ZM20.0469 45.7578C20.0469 44.2852 18.8516 43.0938 17.3828 43.0938C15.9102 43.0938 14.7188 44.2852 14.7188 45.7578C14.7188 47.2266 15.9102 48.4219 17.3828 48.4219C18.8516 48.4219 20.0469 47.2266 20.0469 45.7578ZM12.793 40.4297H0.855469C0.382812 40.4297 0 40.8125 0 41.2852V43.8828C0 44.3555 0.382812 44.7383 0.855469 44.7383H10.4258C10.6758 43.0273 11.5391 41.5117 12.793 40.4297ZM50.582 45.7578C50.582 48.6992 48.1953 51.0859 45.2539 51.0859C42.3125 51.0859 39.9258 48.6992 39.9258 45.7578C39.9258 42.8164 42.3125 40.4297 45.2539 40.4297C48.1953 40.4297 50.582 42.8164 50.582 45.7578ZM47.918 45.7578C47.918 44.2852 46.7266 43.0938 45.2539 43.0938C43.7852 43.0938 42.5898 44.2852 42.5898 45.7578C42.5898 47.2266 43.7852 48.4219 45.2539 48.4219C46.7266 48.4219 47.918 47.2266 47.918 45.7578ZM60 41.2852V43.8828C60 44.3555 59.6172 44.7383 59.1445 44.7383H52.2109C51.7148 41.3398 48.7891 38.7188 45.2539 38.7188C41.7188 38.7188 38.793 41.3398 38.2969 44.7383H24.3398C24.0898 43.0273 23.2227 41.5117 21.9688 40.4297H35.2031V15.9414C35.2031 14.9961 35.9727 14.2266 36.918 14.2266H45C47.2773 14.2266 49.4023 15.3594 50.6758 17.2461L55.8867 24.9609C56.6523 26.0938 57.0586 27.4297 57.0586 28.7969V40.4297H59.1445C59.6172 40.4297 60 40.8125 60 41.2852ZM51.3164 25.1602L47.1484 19.2383C46.9883 19.0117 46.7266 18.875 46.4492 18.875H39.9492C39.4766 18.875 39.0938 19.2578 39.0938 19.7305V25.6523C39.0938 26.125 39.4766 26.5078 39.9492 26.5078H50.6133C51.3086 26.5078 51.7148 25.7266 51.3164 25.1602Z" />
</svg>
