<svg width="60" height="60" viewBox="0 0 60 60" fill="#5F13EF" xmlns="http://www.w3.org/2000/svg">
<path d="M58.5982 20.6684C58.3177 19.7655 57.4535 19.171 56.509 19.2416C56.3224 19.2548 51.8377 19.6053 43.2046 22.8297C40.0177 24.02 37.4412 24.9044 35.4471 25.4916C35.5367 25.0548 35.5634 24.6023 35.5251 24.1389C35.2552 20.8765 31.8247 18.2707 31.1397 17.7814C30.3034 17.1838 29.1462 17.3106 28.4509 18.0682C28.432 18.0887 26.5126 20.1559 21.2502 23.7389C16.2336 27.1542 8.80997 28.7701 5.63978 29.4599C5.24776 29.5452 4.90967 29.6189 4.63509 29.6822C0.650111 30.602 0.061055 36.4769 0.00711589 37.1437C-0.0567968 37.9357 0.345609 38.6924 1.03827 39.082C5.67601 41.6906 11.1652 42.5952 16.6442 42.5952C25.3084 42.595 33.946 40.333 39.1423 38.9721C39.531 38.8703 39.9007 38.7736 40.2512 38.6829V40.4952C40.2512 41.6192 41.1626 42.5307 42.2866 42.5307H55.7805C56.693 42.5307 57.4942 41.9233 57.7405 41.0446C57.7405 41.0446 58.6692 37.1996 59.1602 35.9796C61.1974 30.9165 58.9324 21.7454 58.5982 20.6684ZM30.0207 22.1789C30.7587 22.929 31.4151 23.8146 31.4683 24.4767C31.478 24.5991 31.4945 24.8034 31.1666 25.1313C30.9152 25.3829 30.5995 25.6597 30.2319 25.9512C30.1122 25.7774 29.9877 25.5987 29.8552 25.4132C29.35 24.7059 28.844 24.0462 28.4251 23.5164C29.0658 23.0017 29.5967 22.5526 30.0207 22.1789ZM24.4767 25.156C25.9616 26.9003 27.2264 28.6573 27.9123 29.8998C27.3546 30.1469 26.6589 30.4255 25.872 30.6787C25.3713 29.6227 24.5007 27.8523 23.4838 25.7458L24.4767 25.156ZM20.5007 28.881C20.7592 29.4184 20.9969 29.914 21.2137 30.3667C19.0997 30.9647 16.7663 31.3636 14.3006 31.3991C16.3317 30.7386 18.475 29.9101 20.5007 28.881ZM38.1107 35.0341C30.4511 37.0401 14.832 41.1313 4.274 36.1724C4.48263 35.2723 4.80322 34.4579 5.12644 34.0081C7.13501 35.4771 10.1874 35.4081 11.1841 35.3395C15.4585 35.7567 19.4934 35.1823 23.0069 34.1174C23.3743 34.7459 24.0436 35.128 24.759 35.128C24.9074 35.128 25.0583 35.1117 25.2081 35.0777C28.6337 34.304 31.2788 32.7754 31.3897 32.7105C31.946 32.3858 32.316 31.8171 32.3868 31.177C32.4129 30.9421 32.419 30.6777 32.3771 30.3618C34.235 30.1332 37.5056 29.3036 44.6288 26.6433C49.7392 24.7344 53.2749 23.9017 55.1699 23.5488C55.8809 26.4367 56.5632 30.6968 55.9212 33.1473C52.9621 33.1446 45.9752 33.2338 41.3499 34.2249C40.5227 34.4023 39.4584 34.6812 38.1107 35.0341ZM44.3218 38.4598V37.8414C47.7475 37.3684 51.9274 37.2481 54.5833 37.2247L54.2371 38.4598H44.3218Z" />
</svg>
