<svg width="62" height="62" viewBox="0 0 62 62" fill="#5F13EF" xmlns="http://www.w3.org/2000/svg">
<path fill-rule="evenodd" clip-rule="evenodd" d="M2.06419 55.7059H39.3108C39.8985 55.7059 40.375 55.2634 40.375 54.7177V7.28236C40.375 6.73661 39.8985 6.29413 39.3108 6.29413H2.06419C1.47649 6.29413 1 6.73661 1 7.28236V54.7177C1 55.2634 1.47649 55.7059 2.06419 55.7059ZM3.12866 8.27058H38.2469V30.0118H3.12866V8.27058ZM38.2469 31.9882H3.12866V53.7294H38.2469V31.9882Z" />
<path d="M38.2469 8.27058H38.3969V8.12058H38.2469V8.27058ZM3.12866 8.27058V8.12058H2.97866V8.27058H3.12866ZM38.2469 30.0118V30.1618H38.3969V30.0118H38.2469ZM3.12866 30.0118H2.97866V30.1618H3.12866V30.0118ZM3.12866 31.9882V31.8382H2.97866V31.9882H3.12866ZM38.2469 31.9882H38.3969V31.8382H38.2469V31.9882ZM3.12866 53.7294H2.97866V53.8794H3.12866V53.7294ZM38.2469 53.7294V53.8794H38.3969V53.7294H38.2469ZM39.3108 55.5559H2.06419V55.8559H39.3108V55.5559ZM40.225 54.7177C40.225 55.1703 39.8263 55.5559 39.3108 55.5559V55.8559C39.9707 55.8559 40.525 55.3565 40.525 54.7177H40.225ZM40.225 7.28236V54.7177H40.525V7.28236H40.225ZM39.3108 6.44413C39.8263 6.44413 40.225 6.82972 40.225 7.28236H40.525C40.525 6.64351 39.9707 6.14413 39.3108 6.14413V6.44413ZM2.06419 6.44413H39.3108V6.14413H2.06419V6.44413ZM1.15 7.28236C1.15 6.82972 1.54868 6.44413 2.06419 6.44413V6.14413C1.40431 6.14413 0.85 6.64351 0.85 7.28236H1.15ZM1.15 54.7177V7.28236H0.85V54.7177H1.15ZM2.06419 55.5559C1.54868 55.5559 1.15 55.1703 1.15 54.7177H0.85C0.85 55.3565 1.40431 55.8559 2.06419 55.8559V55.5559ZM38.2469 8.12058H3.12866V8.42058H38.2469V8.12058ZM38.3969 30.0118V8.27058H38.0969V30.0118H38.3969ZM3.12866 30.1618H38.2469V29.8618H3.12866V30.1618ZM2.97866 8.27058V30.0118H3.27866V8.27058H2.97866ZM3.12866 32.1382H38.2469V31.8382H3.12866V32.1382ZM3.27866 53.7294V31.9882H2.97866V53.7294H3.27866ZM38.2469 53.5794H3.12866V53.8794H38.2469V53.5794ZM38.0969 31.9882V53.7294H38.3969V31.9882H38.0969Z" />
<path fill-rule="evenodd" clip-rule="evenodd" d="M35.5259 34.5294H5.84914C5.24214 34.5294 4.75 34.9684 4.75 35.5098V51.1961C4.75 51.7375 5.24214 52.1765 5.84914 52.1765H35.5259C36.1329 52.1765 36.625 51.7375 36.625 51.1961V35.5098C36.625 34.9684 36.1329 34.5294 35.5259 34.5294ZM14.6422 50.2157H6.94824V44.3333H14.6422V50.2157ZM6.94824 42.3726H14.6422V36.4902H6.94824V42.3726ZM24.5343 50.2157H16.8403V44.3333H24.5343V50.2157ZM16.8403 42.3726H24.5343V36.4902H16.8403V42.3726ZM34.4266 50.2157H26.7327V44.3333H34.4266V50.2157ZM26.7327 42.3726H34.4266V36.4902H26.7327V42.3726Z" />
<path d="M6.94824 50.2157H6.79824V50.3657H6.94824V50.2157ZM14.6422 50.2157V50.3657H14.7922V50.2157H14.6422ZM6.94824 44.3333V44.1833H6.79824V44.3333H6.94824ZM14.6422 44.3333H14.7922V44.1833H14.6422V44.3333ZM14.6422 42.3726V42.5226H14.7922V42.3726H14.6422ZM6.94824 42.3726H6.79824V42.5226H6.94824V42.3726ZM14.6422 36.4902H14.7922V36.3402H14.6422V36.4902ZM6.94824 36.4902V36.3402H6.79824V36.4902H6.94824ZM16.8403 50.2157H16.6903V50.3657H16.8403V50.2157ZM24.5343 50.2157V50.3657H24.6843V50.2157H24.5343ZM16.8403 44.3333V44.1833H16.6903V44.3333H16.8403ZM24.5343 44.3333H24.6843V44.1833H24.5343V44.3333ZM24.5343 42.3726V42.5226H24.6843V42.3726H24.5343ZM16.8403 42.3726H16.6903V42.5226H16.8403V42.3726ZM24.5343 36.4902H24.6843V36.3402H24.5343V36.4902ZM16.8403 36.4902V36.3402H16.6903V36.4902H16.8403ZM26.7327 50.2157H26.5827V50.3657H26.7327V50.2157ZM34.4266 50.2157V50.3657H34.5766V50.2157H34.4266ZM26.7327 44.3333V44.1833H26.5827V44.3333H26.7327ZM34.4266 44.3333H34.5766V44.1833H34.4266V44.3333ZM34.4266 42.3726V42.5226H34.5766V42.3726H34.4266ZM26.7327 42.3726H26.5827V42.5226H26.7327V42.3726ZM34.4266 36.4902H34.5766V36.3402H34.4266V36.4902ZM26.7327 36.4902V36.3402H26.5827V36.4902H26.7327ZM5.84914 34.6794H35.5259V34.3794H5.84914V34.6794ZM4.9 35.5098C4.9 35.0669 5.3084 34.6794 5.84914 34.6794V34.3794C5.17589 34.3794 4.6 34.8699 4.6 35.5098H4.9ZM4.9 51.1961V35.5098H4.6V51.1961H4.9ZM5.84914 52.0265C5.3084 52.0265 4.9 51.639 4.9 51.1961H4.6C4.6 51.836 5.17589 52.3265 5.84914 52.3265V52.0265ZM35.5259 52.0265H5.84914V52.3265H35.5259V52.0265ZM36.475 51.1961C36.475 51.639 36.0666 52.0265 35.5259 52.0265V52.3265C36.1991 52.3265 36.775 51.836 36.775 51.1961H36.475ZM36.475 35.5098V51.1961H36.775V35.5098H36.475ZM35.5259 34.6794C36.0666 34.6794 36.475 35.0669 36.475 35.5098H36.775C36.775 34.8699 36.1991 34.3794 35.5259 34.3794V34.6794ZM6.94824 50.3657H14.6422V50.0657H6.94824V50.3657ZM6.79824 44.3333V50.2157H7.09824V44.3333H6.79824ZM14.6422 44.1833H6.94824V44.4833H14.6422V44.1833ZM14.7922 50.2157V44.3333H14.4922V50.2157H14.7922ZM14.6422 42.2226H6.94824V42.5226H14.6422V42.2226ZM14.4922 36.4902V42.3726H14.7922V36.4902H14.4922ZM6.94824 36.6402H14.6422V36.3402H6.94824V36.6402ZM7.09824 42.3726V36.4902H6.79824V42.3726H7.09824ZM16.8403 50.3657H24.5343V50.0657H16.8403V50.3657ZM16.6903 44.3333V50.2157H16.9903V44.3333H16.6903ZM24.5343 44.1833H16.8403V44.4833H24.5343V44.1833ZM24.6843 50.2157V44.3333H24.3843V50.2157H24.6843ZM24.5343 42.2226H16.8403V42.5226H24.5343V42.2226ZM24.3843 36.4902V42.3726H24.6843V36.4902H24.3843ZM16.8403 36.6402H24.5343V36.3402H16.8403V36.6402ZM16.9903 42.3726V36.4902H16.6903V42.3726H16.9903ZM26.7327 50.3657H34.4266V50.0657H26.7327V50.3657ZM26.5827 44.3333V50.2157H26.8827V44.3333H26.5827ZM34.4266 44.1833H26.7327V44.4833H34.4266V44.1833ZM34.5766 50.2157V44.3333H34.2766V50.2157H34.5766ZM34.4266 42.2226H26.7327V42.5226H34.4266V42.2226ZM34.2766 36.4902V42.3726H34.5766V36.4902H34.2766ZM26.7327 36.6402H34.4266V36.3402H26.7327V36.6402ZM26.8827 42.3726V36.4902H26.5827V42.3726H26.8827Z" />
<path fill-rule="evenodd" clip-rule="evenodd" d="M4.75 24.0392C4.7602 16.1918 11.8896 9.83261 20.6875 9.82352C29.4849 9.83261 36.6148 16.1918 36.625 24.0392V26.4902C36.625 27.0316 36.1329 27.4706 35.5259 27.4706H5.84914C5.24214 27.4706 4.75 27.0316 4.75 26.4902V24.0392ZM6.94824 24.0392V25.5098H34.4267V24.0392C34.4267 17.2708 28.2752 11.7843 20.6875 11.7843C13.0992 11.7843 6.94824 17.2708 6.94824 24.0392Z" />
<path d="M20.6875 9.82352L20.6877 9.67352L20.6873 9.67352L20.6875 9.82352ZM4.75 24.0392L4.6 24.039V24.0392H4.75ZM36.625 24.0392H36.775V24.039L36.625 24.0392ZM6.94824 25.5098H6.79824V25.6598H6.94824V25.5098ZM34.4267 25.5098V25.6598H34.5767V25.5098H34.4267ZM20.6873 9.67352C11.8232 9.68268 4.61032 16.0932 4.6 24.039L4.9 24.0394C4.91007 16.2903 11.9559 9.98254 20.6877 9.97352L20.6873 9.67352ZM36.775 24.039C36.7647 16.0932 29.5512 9.68268 20.6877 9.67352L20.6873 9.97352C29.4186 9.98254 36.4649 16.2903 36.475 24.0394L36.775 24.039ZM36.775 26.4902V24.0392H36.475V26.4902H36.775ZM35.5259 27.6206C36.1991 27.6206 36.775 27.1301 36.775 26.4902H36.475C36.475 26.9331 36.0666 27.3206 35.5259 27.3206V27.6206ZM5.84914 27.6206H35.5259V27.3206H5.84914V27.6206ZM4.6 26.4902C4.6 27.1301 5.17589 27.6206 5.84914 27.6206V27.3206C5.3084 27.3206 4.9 26.9331 4.9 26.4902H4.6ZM4.6 24.0392V26.4902H4.9V24.0392H4.6ZM7.09824 25.5098V24.0392H6.79824V25.5098H7.09824ZM34.4267 25.3598H6.94824V25.6598H34.4267V25.3598ZM34.2767 24.0392V25.5098H34.5767V24.0392H34.2767ZM20.6875 11.9343C28.2089 11.9343 34.2767 17.3693 34.2767 24.0392H34.5767C34.5767 17.1723 28.3414 11.6343 20.6875 11.6343V11.9343ZM7.09824 24.0392C7.09824 17.3693 13.1655 11.9343 20.6875 11.9343V11.6343C13.033 11.6343 6.79824 17.1723 6.79824 24.0392H7.09824Z" />
<path d="M22.8191 15.1972C22.2485 14.984 21.5878 15.2139 21.3437 15.7111L17.9725 22.5637C17.8073 22.8859 17.8545 23.2612 18.0954 23.5446C18.3368 23.8285 18.7346 23.9772 19.1368 23.9337C19.539 23.8902 19.883 23.6617 20.0378 23.3352L23.409 16.4826C23.6531 15.9854 23.3892 15.4099 22.8191 15.1972Z"  stroke="#5F13EF" stroke-width="0.3"/>
<path d="M15.4808 15.2109C15.0178 14.993 14.4545 15.17 14.2234 15.6059L12.3491 19.1346C12.1176 19.5709 12.3056 20.1007 12.7687 20.3187C13.2322 20.5362 13.7951 20.3596 14.0266 19.9233L15.9009 16.3946C16.1325 15.9587 15.9444 15.4285 15.4808 15.2109Z"  stroke="#5F13EF" stroke-width="0.3"/>
<path d="M28.5357 16.9547C28.0547 16.7479 27.5091 16.9995 27.3169 17.5164L25.4423 22.5578C25.25 23.0747 25.4839 23.6615 25.9645 23.8683C26.0752 23.9161 26.1929 23.9407 26.3123 23.9412C26.6954 23.9412 27.0405 23.6906 27.1828 23.3081L29.0575 18.2667C29.1504 18.0181 29.1472 17.7404 29.0492 17.4943C28.9513 17.2481 28.7664 17.0542 28.5357 16.9547Z"  stroke="#5F13EF" stroke-width="0.3"/>
<path fill-rule="evenodd" clip-rule="evenodd" d="M48.3438 56.9919C48.3438 59.2059 50.2323 61 52.5628 61C54.8927 61 56.7817 59.2059 56.7817 56.9919V25.0919L57.8205 16.2064L60.9647 4.96453C61.0651 4.60541 60.9477 4.22232 60.6598 3.97035C60.583 3.90234 52.897 -2.65576 44.5075 3.93561C44.1902 4.18465 44.0548 4.58682 44.1603 4.96453L47.3045 16.2064L48.3438 25.0919V56.9919ZM54.6721 56.992C54.6721 58.0992 53.7276 58.996 52.5626 58.996C51.3977 58.996 50.4531 58.0992 50.4531 56.992V30.0491H54.6721V56.992ZM50.4531 28.0451H54.6721V26.0411H50.4531V28.0451ZM54.7777 24.0371H50.3475L49.5271 17.023H55.6084L54.7777 24.0371ZM58.7515 5.07362C55.133 2.32298 49.989 2.32787 46.3762 5.08586L49.1547 15.0106H50.2208L49.4194 11.2031C49.3272 10.6703 49.696 10.1639 50.2532 10.0578C50.8105 9.95208 51.3559 10.2848 51.4867 10.8103L52.3725 15.0189H52.7521L53.6384 10.8186C53.7007 10.457 53.966 10.1566 54.3296 10.0353C54.6932 9.91441 55.098 9.99122 55.3843 10.2359C55.6712 10.481 55.7943 10.8548 55.7057 11.211L54.9038 15.0189H55.9704L58.7515 5.07362Z" />
<path d="M56.7817 25.0919L56.6328 25.0745L56.6317 25.0832V25.0919H56.7817ZM57.8205 16.2064L57.6761 16.166L57.6729 16.1773L57.6715 16.1889L57.8205 16.2064ZM60.9647 4.96453L61.1091 5.00494V5.00493L60.9647 4.96453ZM60.6598 3.97035L60.5603 4.08261L60.561 4.08322L60.6598 3.97035ZM44.5075 3.93561L44.6001 4.0536L44.6001 4.05356L44.5075 3.93561ZM44.1603 4.96453L44.0159 5.00491L44.0159 5.00494L44.1603 4.96453ZM47.3045 16.2064L47.4535 16.1889L47.4521 16.1773L47.4489 16.166L47.3045 16.2064ZM48.3438 25.0919H48.4938V25.0832L48.4928 25.0745L48.3438 25.0919ZM50.4531 30.0491V29.8991H50.3031V30.0491H50.4531ZM54.6721 30.0491H54.8221V29.8991H54.6721V30.0491ZM54.6721 28.0451V28.1951H54.8221V28.0451H54.6721ZM50.4531 28.0451H50.3031V28.1951H50.4531V28.0451ZM54.6721 26.0411H54.8221V25.8911H54.6721V26.0411ZM50.4531 26.0411V25.8911H50.3031V26.0411H50.4531ZM50.3475 24.0371L50.1985 24.0545L50.214 24.1871H50.3475V24.0371ZM54.7777 24.0371V24.1871H54.9109L54.9266 24.0547L54.7777 24.0371ZM49.5271 17.023V16.873H49.3585L49.3781 17.0404L49.5271 17.023ZM55.6084 17.023L55.7573 17.0406L55.7772 16.873H55.6084V17.023ZM46.3762 5.08586L46.2852 4.96663L46.2044 5.02835L46.2318 5.12629L46.3762 5.08586ZM58.7515 5.07362L58.8959 5.11402L58.9234 5.01588L58.8422 4.95421L58.7515 5.07362ZM49.1547 15.0106L49.0103 15.051L49.0409 15.1606H49.1547V15.0106ZM50.2208 15.0106V15.1606H50.4056L50.3676 14.9797L50.2208 15.0106ZM49.4194 11.2031L49.2715 11.2287L49.2726 11.234L49.4194 11.2031ZM50.2532 10.0578L50.2253 9.91039L50.2252 9.91041L50.2532 10.0578ZM51.4867 10.8103L51.6336 10.7793L51.6322 10.774L51.4867 10.8103ZM52.3725 15.0189L52.2257 15.0498L52.2508 15.1689H52.3725V15.0189ZM52.7521 15.0189V15.1689H52.8737L52.8988 15.0499L52.7521 15.0189ZM53.6384 10.8186L53.7853 10.8496L53.7862 10.844L53.6384 10.8186ZM54.3296 10.0353L54.2822 9.89291L54.2821 9.89297L54.3296 10.0353ZM55.3843 10.2359L55.4817 10.1218L55.4817 10.1218L55.3843 10.2359ZM55.7057 11.211L55.56 11.1747L55.5589 11.18L55.7057 11.211ZM54.9038 15.0189L54.757 14.988L54.7189 15.1689H54.9038V15.0189ZM55.9704 15.0189V15.1689H56.0842L56.1148 15.0593L55.9704 15.0189ZM52.5628 60.85C50.3078 60.85 48.4938 59.1159 48.4938 56.9919H48.1938C48.1938 59.2959 50.1568 61.15 52.5628 61.15V60.85ZM56.6317 56.9919C56.6317 59.1159 54.8172 60.85 52.5628 60.85V61.15C54.9682 61.15 56.9317 59.2959 56.9317 56.9919H56.6317ZM56.6317 25.0919V56.9919H56.9317V25.0919H56.6317ZM57.6715 16.1889L56.6328 25.0745L56.9307 25.1093L57.9695 16.2238L57.6715 16.1889ZM60.8202 4.92413L57.6761 16.166L57.965 16.2468L61.1091 5.00494L60.8202 4.92413ZM60.561 4.08322C60.8069 4.2984 60.9046 4.62244 60.8202 4.92414L61.1091 5.00493C61.2256 4.58839 61.0885 4.14624 60.7586 3.85748L60.561 4.08322ZM44.6001 4.05356C48.7513 0.792117 52.719 0.786663 55.6609 1.60029C57.1344 2.0078 58.3519 2.62145 59.2058 3.13768C59.6326 3.39569 59.968 3.62905 60.1986 3.79959C60.3139 3.88485 60.403 3.95437 60.4641 4.00336C60.4946 4.02786 60.5182 4.04721 60.5345 4.06081C60.5427 4.06761 60.549 4.07295 60.5535 4.07675C60.5582 4.08081 60.5603 4.08262 60.5603 4.08261L60.7593 3.85809C60.7116 3.81585 58.751 2.14362 55.7409 1.31114C52.7232 0.476553 48.6531 0.487734 44.4148 3.81766L44.6001 4.05356ZM44.3048 4.92415C44.2161 4.6069 44.3288 4.26651 44.6001 4.0536L44.4148 3.81762C44.0516 4.10278 43.8934 4.56675 44.0159 5.00491L44.3048 4.92415ZM47.4489 16.166L44.3048 4.92413L44.0159 5.00494L47.16 16.2468L47.4489 16.166ZM48.4928 25.0745L47.4535 16.1889L47.1555 16.2238L48.1948 25.1093L48.4928 25.0745ZM48.4938 56.9919V25.0919H48.1938V56.9919H48.4938ZM52.5626 59.146C53.8031 59.146 54.8221 58.1892 54.8221 56.992H54.5221C54.5221 58.0091 53.6521 58.846 52.5626 58.846V59.146ZM50.3031 56.992C50.3031 58.1892 51.3222 59.146 52.5626 59.146V58.846C51.4731 58.846 50.6031 58.0091 50.6031 56.992H50.3031ZM50.3031 30.0491V56.992H50.6031V30.0491H50.3031ZM54.6721 29.8991H50.4531V30.1991H54.6721V29.8991ZM54.8221 56.992V30.0491H54.5221V56.992H54.8221ZM54.6721 27.8951H50.4531V28.1951H54.6721V27.8951ZM54.5221 26.0411V28.0451H54.8221V26.0411H54.5221ZM50.4531 26.1911H54.6721V25.8911H50.4531V26.1911ZM50.6031 28.0451V26.0411H50.3031V28.0451H50.6031ZM50.3475 24.1871H54.7777V23.8871H50.3475V24.1871ZM49.3781 17.0404L50.1985 24.0545L50.4965 24.0196L49.6761 17.0055L49.3781 17.0404ZM55.6084 16.873H49.5271V17.173H55.6084V16.873ZM54.9266 24.0547L55.7573 17.0406L55.4594 17.0053L54.6287 24.0194L54.9266 24.0547ZM46.4672 5.20508C50.0264 2.48807 55.0959 2.48324 58.6607 5.19304L58.8422 4.95421C55.17 2.16272 49.9517 2.16768 46.2852 4.96663L46.4672 5.20508ZM49.2992 14.9701L46.5207 5.04542L46.2318 5.12629L49.0103 15.051L49.2992 14.9701ZM50.2208 14.8606H49.1547V15.1606H50.2208V14.8606ZM49.2726 11.234L50.074 15.0415L50.3676 14.9797L49.5662 11.1722L49.2726 11.234ZM50.2252 9.91041C49.5941 10.0306 49.1644 10.6088 49.2716 11.2287L49.5672 11.1776C49.4901 10.7319 49.7979 10.2972 50.2813 10.2051L50.2252 9.91041ZM51.6322 10.774C51.4808 10.1656 50.8547 9.79102 50.2253 9.91039L50.2812 10.2051C50.7663 10.1131 51.231 10.404 51.3411 10.8465L51.6322 10.774ZM52.5193 14.988L51.6335 10.7794L51.3399 10.8411L52.2257 15.0498L52.5193 14.988ZM52.7521 14.8689H52.3725V15.1689H52.7521V14.8689ZM53.4916 10.7876L52.6053 14.9879L52.8988 15.0499L53.7852 10.8495L53.4916 10.7876ZM54.2821 9.89297C53.8691 10.0308 53.5628 10.374 53.4906 10.7931L53.7862 10.844C53.8386 10.54 54.0629 10.2824 54.377 10.1775L54.2821 9.89297ZM55.4817 10.1218C55.1545 9.84226 54.6946 9.75587 54.2822 9.89291L54.3769 10.1776C54.6917 10.0729 55.0414 10.1402 55.2869 10.3499L55.4817 10.1218ZM55.8512 11.2472C55.954 10.8339 55.8103 10.4026 55.4817 10.1218L55.2869 10.3499C55.532 10.5594 55.6345 10.8756 55.5601 11.1748L55.8512 11.2472ZM55.0506 15.0498L55.8525 11.2419L55.5589 11.18L54.757 14.988L55.0506 15.0498ZM55.9704 14.8689H54.9038V15.1689H55.9704V14.8689ZM58.607 5.03323L55.8259 14.9785L56.1148 15.0593L58.8959 5.11402L58.607 5.03323Z" />
</svg>
