<svg width="60" height="60" viewBox="0 0 60 60" fill="#5F13EF" xmlns="http://www.w3.org/2000/svg">
<path d="M17.4128 27.6891H16.7555V22.3594C16.7555 21.7277 16.2435 21.2156 15.6117 21.2156H15.5135V10.3116C15.5135 9.87845 15.2689 9.4824 14.8812 9.28857L6.02989 4.86168C5.67547 4.68447 5.25441 4.70322 4.91707 4.9117C4.57973 5.12002 4.37446 5.48816 4.37446 5.88467V21.2156H4.27624C3.64442 21.2156 3.13246 21.7277 3.13246 22.3594V27.6891H2.4741C1.84228 27.6891 1.33032 28.2012 1.33032 28.8329V58.8562C1.33032 59.4879 1.84228 60 2.4741 60H17.4125C18.0443 60 18.5563 59.4879 18.5563 58.8562V28.8329C18.5566 28.2012 18.0446 27.6891 17.4128 27.6891ZM6.66232 7.73562L13.2261 11.0184V21.2156H6.66232V7.73562ZM5.42048 23.5032H14.4681V27.6891H5.42048V23.5032ZM16.269 57.7124H3.61819V29.9767H16.269V57.7124Z" />
<path d="M57.5253 46.4034H20.3747C19.7429 46.4034 19.231 46.9155 19.231 47.5471C19.231 48.1788 19.7429 48.6909 20.3747 48.6909H55.7055L55.444 49.2346C54.0072 52.22 50.9381 54.1492 47.6249 54.1492H20.3747C19.7429 54.1492 19.231 54.6613 19.231 55.293C19.231 55.9246 19.7429 56.4367 20.3747 56.4367H47.6249C51.8116 56.4367 55.69 53.9991 57.5052 50.2265L58.556 48.0431C58.7266 47.6887 58.7031 47.2714 58.4937 46.9385C58.2844 46.6056 57.9187 46.4034 57.5253 46.4034Z" />
<path d="M17.7336 8.41045C21.9984 4.46212 27.5501 2.28756 33.3665 2.28756C46.057 2.28756 56.3815 12.6121 56.3815 25.3026C56.3815 32.1444 53.3666 38.5866 48.1103 42.9773C47.6253 43.3824 47.5607 44.1036 47.9657 44.5884C48.1919 44.8592 48.5167 44.9989 48.8441 44.9989C49.1026 44.9989 49.3628 44.9117 49.5768 44.733C55.3553 39.9064 58.6692 32.8242 58.6692 25.3024C58.6691 11.3507 47.3183 0 33.3665 0C26.9722 0 20.8685 2.39081 16.1794 6.73199C15.716 7.16114 15.6881 7.88477 16.1172 8.34838C16.5462 8.81169 17.2698 8.8396 17.7336 8.41045Z" />
<path d="M33.3658 7.04476C43.4335 7.04476 51.6242 15.2355 51.6242 25.3032C51.6242 35.3709 43.4335 43.5616 33.3658 43.5616C28.8397 43.5616 24.4982 41.8935 21.1406 38.8649C20.6718 38.4419 19.9485 38.4789 19.5252 38.948C19.1021 39.417 19.1393 40.1403 19.6084 40.5633C23.3869 43.972 28.2726 45.8491 33.3658 45.8491C44.6949 45.8491 53.9118 36.6322 53.9118 25.3032C53.9118 13.9741 44.6949 4.7572 33.3658 4.7572C26.8592 4.7572 20.6694 7.88964 16.8082 13.1365C16.4336 13.6453 16.5426 14.3613 17.0514 14.7357C17.5602 15.1099 18.2759 15.0012 18.6506 14.4925C22.0825 9.82903 27.5836 7.04476 33.3658 7.04476Z" />
<path d="M45.9489 16.2926L25.076 37.1655C24.6293 37.6122 24.6293 38.3365 25.076 38.783C25.2994 39.0063 25.5922 39.1181 25.8849 39.1181C26.1775 39.1181 26.4703 39.0064 26.6937 38.783L47.5665 17.9101C48.0132 17.4634 48.0132 16.7391 47.5665 16.2926C47.1197 15.8459 46.3956 15.8459 45.9489 16.2926Z" />
<path d="M31.4319 37.3067C30.9853 37.7534 30.9853 38.4777 31.4319 38.9242C31.6554 39.1475 31.9482 39.2592 32.2408 39.2592C32.5335 39.2592 32.8263 39.1476 33.0497 38.9242L48.721 23.2529C49.1677 22.8062 49.1677 22.082 48.721 21.6354C48.2742 21.1887 47.5501 21.1887 47.1034 21.6354L31.4319 37.3067Z" />
</svg>
