<svg width="60" height="60" viewBox="0 0 60 60" fill="#5F13EF" xmlns="http://www.w3.org/2000/svg">
<path d="M34.5036 14.8128C37.1373 15.3413 39.5343 16.6338 41.4353 18.5504C43.3366 20.4668 44.6004 22.8656 45.0907 25.4874C45.1735 25.9294 45.562 26.25 46.0151 26.25H59.0599C59.3249 26.25 59.5777 26.1389 59.756 25.9442C59.9342 25.7494 60.0213 25.489 59.9956 25.2271C59.3717 18.8477 56.4928 12.7973 51.8887 8.19045C47.2848 3.58375 41.212 0.676936 34.7887 0.00530499C34.524 -0.0229667 34.2593 0.0627093 34.0613 0.239658C33.8633 0.416607 33.75 0.668469 33.75 0.932959V13.8984C33.7499 14.3423 34.0652 14.7248 34.5036 14.8128Z" />
<path fill-rule="evenodd" clip-rule="evenodd" d="M45.192 33.75H59.0077C59.2903 33.75 59.5596 33.8647 59.7482 34.0653C59.9363 34.2658 60.0258 34.5332 59.9935 34.8004C59.17 41.6775 55.6823 48.0434 50.1728 52.7253C44.6528 57.4164 37.5883 60 30.2807 60C23.5245 60 16.8984 57.7931 11.623 53.7858C11.4024 53.6182 11.2673 53.3693 11.2515 53.101C11.2358 52.8328 11.341 52.5712 11.5407 52.3812L21.3047 43.097C21.6357 42.7823 22.1525 42.7303 22.5453 42.9719C24.8477 44.3877 27.5226 45.1359 30.2807 45.1359C37.0452 45.1359 42.778 40.7588 44.2225 34.4916C44.3225 34.0586 44.7256 33.75 45.192 33.75ZM30.2803 55.935C36.7457 55.935 42.9196 53.6394 47.6651 49.4712C51.2642 46.3098 53.8168 42.2845 55.0598 37.815H47.6341C44.9324 44.632 37.9793 49.2011 30.2803 49.2011C27.5939 49.2011 25.0085 48.6694 22.5929 47.6205L17.3464 52.6091C18.6062 53.3109 19.9378 53.9131 21.3093 54.4008C24.1729 55.4188 27.1912 55.935 30.2803 55.935Z" />
<path fill-rule="evenodd" clip-rule="evenodd" d="M14.7359 29.5686C14.7359 32.4261 15.536 35.1776 17.0498 37.526C17.3021 37.9176 17.255 38.4431 16.9375 38.778L7.75403 48.4612C7.57815 48.6465 7.33995 48.75 7.09254 48.75C7.077 48.75 7.06146 48.7495 7.04591 48.7488C6.78195 48.7348 6.53584 48.604 6.36845 48.3884C2.26166 43.0972 0 36.4136 0 29.5686C0 22.2438 2.58549 15.1845 7.28022 9.69162C11.966 4.20923 18.3358 0.769348 25.2165 0.00555367C25.4801 -0.0241908 25.7432 0.0665601 25.9404 0.253373C26.1374 0.44049 26.25 0.706824 26.25 0.986513V14.6976C26.25 15.1666 25.9368 15.5708 25.501 15.6642C22.6009 16.2864 19.9347 17.9372 17.9937 20.3127C15.8929 22.8836 14.7359 26.1708 14.7359 29.5686ZM12.4351 10.2547C11.7548 10.8728 11.1044 11.5323 10.5012 12.2157C10.3259 12.4142 10.1493 12.6212 9.97339 12.8345H20.8197C21.2922 12.6049 21.7624 12.4013 22.2202 12.2273V10.2547H12.4351ZM22.22 4.87455V6.76424H17.4065C18.9454 5.95324 20.5598 5.31935 22.22 4.87455ZM7.5477 16.3249C7.06598 17.1582 6.62787 18.0242 6.24243 18.9048H13.8967C14.5159 17.98 15.218 17.1145 15.9896 16.3249H7.5477ZM4.42383 24.9751C4.57366 24.1086 4.76824 23.2426 5.00342 22.3952H12.0655C11.7321 23.2346 11.4575 24.1002 11.2471 24.9751H4.42383ZM12.2329 37.1157C11.8763 36.2798 11.5788 35.4142 11.3465 34.5358H4.49658C4.66138 35.4102 4.86906 36.2762 5.11561 37.1157H12.2329ZM10.7623 31.0454H4.07216C4.04438 30.5443 4.03027 30.0487 4.03027 29.5688C4.03027 29.212 4.03805 28.8419 4.05359 28.4655H10.7384C10.7168 28.8472 10.7062 29.21 10.7062 29.5688C10.7063 30.0535 10.7252 30.5491 10.7623 31.0454ZM7.49765 42.7222L9.50456 40.6061H6.41748C6.7511 41.3391 7.11336 42.0484 7.49765 42.7222Z" />
</svg>
